<svg width="16" height="16" viewBox="0 0 16 16" fill="none" xmlns="http://www.w3.org/2000/svg">
<path d="M14 3.33326L2 3.33326C1.87851 3.33364 1.75942 3.36715 1.65555 3.43018C1.55169 3.49321 1.46698 3.58337 1.41054 3.69096C1.3541 3.79856 1.32808 3.9195 1.33527 4.04078C1.34246 4.16207 1.38259 4.27909 1.45134 4.37926L7.45134 13.0459C7.7 13.4053 8.29867 13.4053 8.548 13.0459L14.548 4.37926C14.6175 4.2793 14.6582 4.16222 14.6658 4.04073C14.6733 3.91925 14.6475 3.79801 14.591 3.69019C14.5345 3.58237 14.4496 3.49209 14.3454 3.42917C14.2412 3.36624 14.1217 3.33307 14 3.33326Z" fill="black"/>
</svg>
