<svg width="16" height="16" viewBox="0 0 16 16" fill="none" xmlns="http://www.w3.org/2000/svg">
<path d="M2.00103 13.3154H14.001C14.1225 13.315 14.2416 13.2815 14.3455 13.2185C14.4494 13.1555 14.5341 13.0653 14.5905 12.9577C14.6469 12.8501 14.673 12.7292 14.6658 12.6079C14.6586 12.4866 14.6185 12.3696 14.5497 12.2694L8.5497 3.60275C8.30103 3.24342 7.70237 3.24342 7.45303 3.60275L1.45303 12.2694C1.38358 12.3694 1.34286 12.4865 1.33528 12.6079C1.3277 12.7294 1.35356 12.8507 1.41004 12.9585C1.46653 13.0663 1.55148 13.1566 1.65568 13.2195C1.75987 13.2824 1.87931 13.3156 2.00103 13.3154Z" fill="black"/>
</svg>
