<svg width="24" height="25" viewBox="0 0 24 25" fill="none" xmlns="http://www.w3.org/2000/svg">
<path d="M18.7209 4.25036C18.4529 4.27123 18.1967 4.36969 17.9837 4.53373C17.7706 4.69776 17.61 4.92026 17.5213 5.17408C17.4326 5.42789 17.4197 5.70204 17.4843 5.96304C17.5488 6.22405 17.6879 6.46063 17.8846 6.64389C18.6544 7.41219 19.2648 8.32507 19.6806 9.33005C20.0965 10.335 20.3096 11.4123 20.3077 12.4999C20.309 13.5874 20.0956 14.6645 19.6798 15.6694C19.264 16.6743 18.6539 17.5872 17.8846 18.3559C17.7509 18.4836 17.6441 18.6367 17.5704 18.8063C17.4967 18.9758 17.4576 19.1584 17.4555 19.3433C17.4534 19.5281 17.4882 19.7116 17.558 19.8828C17.6278 20.054 17.731 20.2095 17.8618 20.3403C17.9925 20.471 18.148 20.5743 18.3193 20.644C18.4905 20.7138 18.6739 20.7487 18.8588 20.7465C19.0436 20.7444 19.2262 20.7054 19.3958 20.6317C19.5653 20.558 19.7185 20.4511 19.8461 20.3174C21.9154 18.2419 23.0774 15.4307 23.0774 12.4999C23.0774 9.5691 21.9154 6.75785 19.8461 4.68236C19.7196 4.54857 19.5676 4.44137 19.3991 4.36703C19.2307 4.29269 19.049 4.25271 18.8649 4.24943C18.8169 4.24693 18.7689 4.24693 18.7209 4.24943V4.25036ZM4.96153 4.27805C4.65467 4.31874 4.3703 4.46109 4.15383 4.68236C2.08456 6.75785 0.922577 9.5691 0.922577 12.4999C0.922577 15.4307 2.08456 18.2419 4.15383 20.3174C4.28152 20.4511 4.43464 20.558 4.6042 20.6317C4.77377 20.7054 4.95635 20.7444 5.14121 20.7465C5.32608 20.7487 5.50951 20.7138 5.68072 20.644C5.85194 20.5743 6.00748 20.471 6.13821 20.3403C6.26894 20.2095 6.37222 20.054 6.44199 19.8828C6.51176 19.7116 6.5466 19.5281 6.54447 19.3433C6.54235 19.1584 6.50329 18.9758 6.4296 18.8063C6.35591 18.6367 6.24908 18.4836 6.11537 18.3559C5.34555 17.5876 4.73518 16.6747 4.31934 15.6697C3.90351 14.6648 3.69041 13.5875 3.69229 12.4999C3.69101 11.4124 3.90439 10.3353 4.32019 9.3304C4.736 8.3255 5.34605 7.41256 6.11537 6.64389C6.32468 6.44062 6.46443 6.17643 6.51467 5.88902C6.56491 5.60161 6.52308 5.30568 6.39514 5.04345C6.2672 4.78123 6.0597 4.56613 5.80225 4.42884C5.5448 4.29155 5.25056 4.23818 4.96153 4.27805ZM8.48122 7.3362C8.17763 7.36885 7.89334 7.50093 7.6726 7.71189C7.00272 8.31708 6.46681 9.05568 6.09928 9.88024C5.73174 10.7048 5.54071 11.5971 5.53845 12.4999C5.53845 14.3904 6.34153 16.1091 7.64399 17.2888C7.77854 17.4119 7.93602 17.5073 8.10744 17.5695C8.27886 17.6318 8.46086 17.6596 8.64305 17.6515C8.82524 17.6434 9.00405 17.5995 9.16927 17.5223C9.33449 17.4451 9.48289 17.3361 9.60599 17.2016C9.72909 17.067 9.82448 16.9095 9.88671 16.7381C9.94895 16.5667 9.97682 16.3847 9.96871 16.2025C9.96062 16.0203 9.91671 15.8415 9.83951 15.6763C9.7623 15.5111 9.65331 15.3627 9.51876 15.2396C9.13555 14.8938 8.8296 14.471 8.62091 13.999C8.41223 13.5269 8.30549 13.016 8.30768 12.4999C8.30577 11.9836 8.41271 11.4726 8.62155 11.0004C8.83038 10.5282 9.13641 10.1053 9.51968 9.75928C9.74089 9.56683 9.8953 9.30913 9.96066 9.0233C10.026 8.73747 9.99896 8.43827 9.88338 8.16881C9.76779 7.89935 9.56964 7.67353 9.31749 7.5239C9.06534 7.37427 8.77312 7.30855 8.48122 7.3362ZM15.3175 7.3362C15.0429 7.35134 14.7791 7.44791 14.5596 7.6136C14.3401 7.77929 14.1749 8.00659 14.085 8.26653C13.9952 8.52647 13.9849 8.80726 14.0553 9.07312C14.1256 9.33897 14.2736 9.57785 14.4803 9.75928C14.8638 10.1051 15.17 10.528 15.3788 11.0002C15.5877 11.4725 15.6945 11.9835 15.6923 12.4999C15.6942 13.0162 15.5873 13.5272 15.3784 13.9994C15.1696 14.4716 14.8636 14.8945 14.4803 15.2405C14.326 15.3557 14.1975 15.5019 14.1029 15.6696C14.0083 15.8373 13.9497 16.0229 13.9308 16.2146C13.912 16.4062 13.9334 16.5996 13.9936 16.7826C14.0537 16.9655 14.1514 17.1338 14.2803 17.2769C14.4092 17.4199 14.5666 17.5345 14.7423 17.6133C14.918 17.6921 15.1082 17.7333 15.3007 17.7345C15.4933 17.7356 15.684 17.6965 15.8606 17.6198C16.0372 17.5431 16.1959 17.4303 16.3264 17.2888C16.9966 16.6836 17.5328 15.9449 17.9005 15.1202C18.2682 14.2954 18.4593 13.4029 18.4615 12.4999C18.465 11.5988 18.2793 10.707 17.9167 9.88212C17.554 9.05723 17.0223 8.31759 16.356 7.71097C16.2179 7.58062 16.0544 7.48008 15.8757 7.41561C15.6971 7.35114 15.5071 7.32411 15.3175 7.3362ZM12 10.8273C11.6692 10.8275 11.3459 10.9257 11.071 11.1096C10.796 11.2935 10.5818 11.5548 10.4553 11.8605C10.3289 12.1661 10.2959 12.5024 10.3605 12.8268C10.4252 13.1512 10.5846 13.4491 10.8185 13.6829C11.0525 13.9168 11.3505 14.076 11.6749 14.1404C11.9994 14.2049 12.3356 14.1717 12.6412 14.0451C12.9468 13.9185 13.208 13.7041 13.3917 13.4291C13.5755 13.154 13.6735 12.8307 13.6735 12.4999C13.6739 12.28 13.6309 12.0622 13.5469 11.859C13.4629 11.6558 13.3396 11.4712 13.1842 11.3157C13.0287 11.1602 12.8441 11.037 12.6409 10.953C12.4376 10.869 12.2199 10.8269 12 10.8273Z" fill="black"/>
</svg>
