<svg width="24" height="24" viewBox="0 0 24 24" fill="none" xmlns="http://www.w3.org/2000/svg">
<mask id="mask0_545_122" style="mask-type:luminance" maskUnits="userSpaceOnUse" x="1" y="1" width="22" height="22">
<path fill-rule="evenodd" clip-rule="evenodd" d="M11.4641 1.78342C11.7946 1.4617 12.3022 1.40778 12.693 1.65289C13.8113 2.35447 15.5001 4.56209 15.5001 8.3665C15.5001 8.91879 15.0523 9.3665 14.5001 9.3665C13.9478 9.3665 13.5001 8.91879 13.5001 8.3665C13.5001 7.27029 13.336 6.37245 13.1019 5.65365C12.6544 6.28991 11.9829 6.74452 11.2875 7.07147C11.2342 7.09654 11.1788 7.11685 11.1219 7.13216C9.94197 7.44964 9.29874 8.03358 8.72329 8.57436C7.83015 9.59394 7.56465 10.4345 7.52538 11.0468C7.48496 11.677 7.67764 12.1751 7.86507 12.4983C8.14218 12.976 7.97953 13.5879 7.50179 13.865C7.02406 14.1421 6.41214 13.9795 6.13504 13.5017C5.80247 12.9284 5.45765 12.0387 5.52948 10.9187C5.60204 9.7874 6.09318 8.5268 7.25557 7.21485C7.27568 7.19215 7.29681 7.17038 7.3189 7.14961L7.32951 7.13963C7.94678 6.55896 8.87057 5.68995 10.51 5.2263C11.1412 4.91687 11.4509 4.59446 11.5672 4.3237C11.6642 4.09803 11.7124 3.7062 11.3004 3.00837C11.0659 2.61118 11.1335 2.10514 11.4641 1.78342Z" fill="white"/>
<path d="M8.1265 13.965C4 11.785 2.255 15.0975 2 16.8775C4 16.8775 6.3395 18.333 7.3605 19.789C9.1985 22.119 12.0405 21.569 13.2315 21.0025C16.9075 19.061 18.1665 19.2225 18.3365 19.5465C18.5415 21.0995 19.1025 21.488 19.358 21.488C21.196 21.682 21.8255 19.4655 21.9105 18.333C22.319 13.6735 21.23 13.4795 20.6345 13.965C18.1835 16.877 16.72 17.4435 16.2945 17.3625C14.457 16.974 14.678 16.23 15.0185 15.906C18.286 13.1885 18.252 7.17 17.8265 4.5C16.6015 7.4125 14.593 8.6255 13.742 8.8685C8.637 10.2275 7.871 12.8325 8.1265 13.965Z" fill="white"/>
<path fill-rule="evenodd" clip-rule="evenodd" d="M17.9463 3.50719C18.3896 3.56068 18.7438 3.90162 18.814 4.34262C19.0407 5.76507 19.1608 8.0446 18.7949 10.3424C18.4616 12.4362 17.7001 14.6962 16.0943 16.2794C16.1787 16.306 16.2777 16.3332 16.3931 16.3601C16.4103 16.355 16.4325 16.3478 16.46 16.3376C16.5998 16.2858 16.8264 16.1752 17.1409 15.9604C17.7693 15.5312 18.6822 14.7316 19.8694 13.321C19.9096 13.2733 19.9542 13.2294 20.0026 13.1899C20.2682 12.9734 20.7153 12.7254 21.2682 12.7954C21.8745 12.8721 22.2915 13.2862 22.5368 13.7594C22.7722 14.2135 22.9051 14.8101 22.9639 15.5357C23.0238 16.2743 23.0119 17.218 22.9072 18.4145C22.8565 19.0789 22.6507 20.0758 22.152 20.9176C21.6381 21.7852 20.7107 22.6193 19.2921 22.4864C18.7308 22.4585 18.284 22.0781 18.0011 21.6615C17.7773 21.332 17.5976 20.9066 17.4712 20.3738C17.4196 20.3817 17.362 20.3919 17.2981 20.4049C16.6357 20.5396 15.4979 20.9364 13.6985 21.8867C13.6862 21.8933 13.6737 21.8995 13.661 21.9055C12.9315 22.2525 11.7498 22.5771 10.4627 22.479C9.14364 22.3786 7.69576 21.8286 6.57538 20.4083C6.56375 20.3936 6.55253 20.3785 6.54175 20.3631C6.13432 19.7821 5.41762 19.1469 4.55406 18.6571C3.68896 18.1665 2.77492 17.8775 2.00001 17.8775C1.71005 17.8775 1.43436 17.7516 1.24442 17.5325C1.05448 17.3135 0.968993 17.0227 1.01011 16.7357C1.1614 15.6797 1.74617 14.1364 2.99115 13.1519C3.63433 12.6432 4.44635 12.2924 5.42175 12.251C5.994 12.2266 6.59886 12.3096 7.23563 12.5075C7.74389 10.8309 9.54896 8.95233 13.4745 7.90488C14.0197 7.74506 15.7927 6.7562 16.9047 4.11229C17.0779 3.70066 17.5029 3.45371 17.9463 3.50719ZM17.8477 20.3557C17.8475 20.3558 17.8437 20.3552 17.8368 20.3534C17.8445 20.3547 17.8479 20.3555 17.8477 20.3557ZM16.3467 16.3715C16.3467 16.3714 16.3476 16.3713 16.3494 16.3711C16.3476 16.3714 16.3467 16.3715 16.3467 16.3715ZM15.6871 16.0961C15.6871 16.0961 15.6876 16.0965 15.6885 16.0973C15.6875 16.0965 15.6871 16.0961 15.6871 16.0961ZM17.0236 7.69837C15.9265 8.96132 14.7563 9.61883 14.0166 9.83006C14.0108 9.83171 14.005 9.8333 13.9993 9.83484C9.13042 11.131 9.02004 13.3817 9.10199 13.7449C9.18791 14.1258 9.04435 14.5218 8.73434 14.7591C8.42434 14.9964 8.00458 15.0316 7.65939 14.8492C6.74407 14.3656 6.03689 14.2266 5.50671 14.2492C4.98638 14.2713 4.57249 14.4511 4.23174 14.7206C3.80871 15.0552 3.49104 15.5374 3.2795 16.025C4.07465 16.2023 4.84934 16.5253 5.54071 16.9174C6.59185 17.5135 7.54699 18.324 8.16131 19.1894C8.87622 20.0843 9.76162 20.4199 10.6146 20.4848C11.4947 20.5518 12.3197 20.3247 12.7846 20.1076C14.6507 19.1236 15.9742 18.6332 16.8994 18.445C17.3607 18.3512 17.7763 18.3211 18.1346 18.3757C18.452 18.424 18.959 18.5806 19.222 19.0819C19.2767 19.186 19.3125 19.299 19.3279 19.4156C19.4094 20.0328 19.5449 20.3536 19.6305 20.4981C19.9457 20.4796 20.1948 20.2975 20.4313 19.8983C20.7264 19.4 20.8782 18.7263 20.9133 18.2582L20.9143 18.2457C21.0134 17.1152 21.0184 16.2891 20.9705 15.6973C20.9537 15.4902 20.931 15.3195 20.906 15.1798C19.8614 16.3542 18.9818 17.125 18.269 17.6119C17.858 17.8926 17.4858 18.0904 17.155 18.213C16.8548 18.3242 16.4783 18.4154 16.1075 18.3449C16.1009 18.3436 16.0943 18.3423 16.0877 18.3409C15.1302 18.1384 14.2889 17.7743 13.938 17.0424C13.5312 16.1939 14.0219 15.4739 14.3292 15.1816C14.3453 15.1662 14.3619 15.1514 14.3791 15.1371C15.7395 14.0057 16.4885 12.109 16.8198 10.028C16.9458 9.23678 17.0071 8.44466 17.0236 7.69837ZM19.7 20.5934C19.6999 20.5939 19.6963 20.5908 19.6894 20.5829C19.6966 20.5891 19.7001 20.593 19.7 20.5934Z" fill="white"/>
<path d="M6 16.706C6.55228 16.706 7 16.2583 7 15.706C7 15.1537 6.55228 14.706 6 14.706C5.44772 14.706 5 15.1537 5 15.706C5 16.2583 5.44772 16.706 6 16.706Z" fill="black"/>
</mask>
<g mask="url(#mask0_545_122)">
<path d="M0 0H24V24H0V0Z" fill="black"/>
</g>
</svg>
