<svg width="24" height="25" viewBox="0 0 24 25" fill="none" xmlns="http://www.w3.org/2000/svg">
<g clip-path="url(#clip0_32_562)">
<path d="M4.5 2.5C3.12 2.5 2 3.62 2 5V7.324C2.00053 7.85868 2.14395 8.3835 2.41541 8.84414C2.68688 9.30478 3.07651 9.6845 3.544 9.944L9.296 13.142C8.0912 13.7502 7.12664 14.7469 6.55818 15.971C5.98972 17.195 5.85056 18.575 6.16318 19.888C6.4758 21.2009 7.22194 22.3701 8.28105 23.2066C9.34016 24.0431 10.6504 24.4982 12 24.4982C13.3496 24.4982 14.6598 24.0431 15.719 23.2066C16.7781 22.3701 17.5242 21.2009 17.8368 19.888C18.1494 18.575 18.0103 17.195 17.4418 15.971C16.8734 14.7469 15.9088 13.7502 14.704 13.142L20.458 9.946C20.9254 9.68608 21.3148 9.30593 21.586 8.84492C21.8571 8.38392 22 7.85882 22 7.324V5C22 3.62 20.88 2.5 19.5 2.5H4.5ZM10 11.244V4.5H14V11.244L12 12.356L10 11.244ZM16 18.5C16 19.5609 15.5786 20.5783 14.8284 21.3284C14.0783 22.0786 13.0609 22.5 12 22.5C10.9391 22.5 9.92172 22.0786 9.17157 21.3284C8.42143 20.5783 8 19.5609 8 18.5C8 17.4391 8.42143 16.4217 9.17157 15.6716C9.92172 14.9214 10.9391 14.5 12 14.5C13.0609 14.5 14.0783 14.9214 14.8284 15.6716C15.5786 16.4217 16 17.4391 16 18.5Z" fill="black"/>
</g>
<defs>
<clipPath id="clip0_32_562">
<rect width="24" height="24" fill="white" transform="translate(0 0.5)"/>
</clipPath>
</defs>
</svg>
