<svg width="201" height="201" viewBox="0 0 201 201" fill="none" xmlns="http://www.w3.org/2000/svg">
<rect x="0.666748" y="0.285706" width="200" height="200" rx="100" fill="white"/>
<path d="M146.667 140.208C144.375 137.917 137.083 132.5 117.708 116.042C118.542 114.792 119.167 113.542 119.792 112.083C117.083 112.917 114.375 113.333 111.667 113.333C110.208 113.333 108.75 113.125 107.5 113.125C102.708 119.167 95.2083 123.125 86.875 123.125C72.2917 123.125 60.4167 111.25 60.4167 96.6667C60.4167 82.0833 72.2917 70.2083 86.875 70.2083H87.0833C89.1667 66.6667 92.0833 63.5417 95.4167 61.0417C92.5 60.4167 89.5833 60 86.6667 60C66.4583 60 50 76.4583 50 96.6667C50 116.875 66.4583 133.125 86.6667 133.125C93.75 133.125 100.417 131.042 106.042 127.5C122.5 146.875 127.917 154.167 130.208 156.458C134.792 161.042 142.083 161.042 146.667 156.458C151.042 152.083 151.042 144.583 146.667 140.208Z" fill="black"/>
<path d="M92.7083 71.4583L93.9583 73.3333C94.375 73.9583 94.5833 75 94.1666 75.625C93.75 76.6667 93.3333 77.5 92.9166 78.3333C92.7083 79.1667 91.875 79.7917 91.0416 79.7917L88.9583 80.2083C87.9166 80.4167 87.0833 81.4583 87.0833 82.5V86.25C87.0833 87.5 87.9166 88.3333 88.9583 88.5417L91.0416 88.9583C91.875 89.1667 92.5 89.7917 92.9166 90.4167C93.125 91.25 93.5416 92.2917 93.9583 93.125C94.375 93.9583 94.1666 94.7917 93.75 95.4167L92.7083 97.5C92.0833 98.3333 92.0833 99.7917 92.9166 100.417L95.625 103.125C96.4583 103.958 97.7083 103.958 98.75 103.333L100.625 102.083C101.25 101.667 102.292 101.458 102.917 101.875C103.75 102.292 104.583 102.708 105.625 102.917C106.458 103.125 107.083 103.958 107.083 104.792L107.5 106.875C107.708 107.917 108.75 108.75 109.792 108.75H113.542C114.583 108.75 115.625 107.917 115.833 106.875L116.25 104.792C116.458 103.958 117.083 103.333 117.708 102.917C118.542 102.708 119.583 102.292 120.417 101.875C121.25 101.458 122.083 101.667 122.708 102.083L124.583 103.333C125.625 103.958 126.875 103.958 127.708 103.125L130.417 100.417C131.25 99.5833 131.25 98.3333 130.625 97.5L129.167 95.625C128.75 95 128.542 93.9583 128.958 93.3333C129.375 92.5 129.792 91.6667 130 90.625C130.208 89.7917 131.042 89.1667 131.875 89.1667L133.958 88.75C135 88.5417 135.833 87.5 135.833 86.4583V82.7083C135.833 81.4583 135 80.625 133.958 80.4167L131.875 80C131.042 79.7917 130.417 79.1667 130 78.5417C129.792 77.7083 129.375 76.6667 128.958 75.8333C128.542 75 128.75 74.1667 129.167 73.5417L130.417 71.6667C131.042 70.8333 131.042 69.375 130.208 68.75L127.5 66.0417C126.667 65.2083 125.417 65.2083 124.375 65.8333L122.5 67.0833C121.875 67.5 120.833 67.7083 120.208 67.2917C119.375 66.875 118.542 66.4583 117.5 66.25C116.667 66.0417 116.042 65.2083 116.042 64.375L115.625 62.2917C115.625 60.8333 114.583 60 113.333 60H109.583C108.542 60 107.5 60.8333 107.292 61.875L106.875 63.9583C106.667 64.7917 106.042 65.4167 105.417 65.8333C104.583 66.0417 103.542 66.4583 102.708 66.875C101.875 67.2917 101.042 67.0833 100.417 66.6667L98.5416 65.4167C97.5 64.7917 96.25 64.7917 95.4166 65.625L92.7083 68.3333C92.0833 69.375 92.0833 70.625 92.7083 71.4583ZM111.458 71.0417C118.958 71.0417 125 77.0833 125 84.5833C125 92.0833 118.958 98.125 111.458 98.125C103.958 98.125 97.9166 92.0833 97.9166 84.5833C97.9166 77.0833 104.167 71.0417 111.458 71.0417Z" fill="#808080"/>
<path d="M111.458 93.9583C116.667 93.9583 120.833 89.7916 120.833 84.5833C120.833 79.375 116.667 75.2083 111.458 75.2083C106.25 75.2083 102.083 79.375 102.083 84.5833C102.083 89.7916 106.25 93.9583 111.458 93.9583Z" fill="#808080"/>
</svg>
