<svg width="200" height="201" viewBox="0 0 200 201" fill="none" xmlns="http://www.w3.org/2000/svg">
<rect y="0.285706" width="200" height="200" rx="100" fill="white"/>
<path d="M67.8511 118.222V148.371C67.8483 148.802 67.6757 149.215 67.3708 149.52C67.0658 149.825 66.653 149.997 66.2218 150H53.1975C52.7673 149.997 52.3556 149.824 52.0524 149.519C51.7491 149.214 51.5789 148.801 51.5789 148.371V117.596C51.5802 117.365 51.6303 117.138 51.726 116.928C51.8218 116.718 51.9609 116.531 52.1343 116.379C52.3077 116.227 52.5114 116.114 52.7319 116.046C52.9523 115.979 53.1846 115.959 53.4133 115.988C56.6888 116.438 59.9913 116.661 63.2975 116.657C64.2471 116.657 65.2074 116.657 66.1678 116.657C66.5982 116.643 67.0169 116.799 67.3323 117.092C67.6477 117.385 67.8343 117.791 67.8511 118.222Z" fill="black"/>
<path d="M93.4032 114.014V148.371C93.4032 148.803 93.2316 149.217 92.926 149.523C92.6204 149.828 92.206 150 91.7738 150H78.7604C78.332 149.994 77.9231 149.82 77.6222 149.515C77.3213 149.21 77.1526 148.799 77.1526 148.371V117.078C77.1506 116.693 77.2867 116.32 77.5362 116.027C77.7856 115.734 78.132 115.54 78.5122 115.481C82.8412 114.75 87.1193 113.744 91.3206 112.47C91.5617 112.398 91.8162 112.383 92.064 112.427C92.3118 112.47 92.5461 112.571 92.7482 112.721C92.9504 112.87 93.1148 113.065 93.2285 113.29C93.3422 113.514 93.402 113.762 93.4032 114.014Z" fill="#808080"/>
<path d="M119.614 102.716V148.371C119.611 148.802 119.438 149.215 119.133 149.52C118.828 149.825 118.415 149.997 117.984 150H104.971C104.539 149.997 104.127 149.825 103.822 149.52C103.517 149.215 103.344 148.802 103.341 148.371V109.406C103.343 109.089 103.436 108.78 103.61 108.515C103.785 108.251 104.033 108.043 104.323 107.917C104.96 107.647 105.586 107.366 106.212 107.075C109.958 105.356 113.61 103.44 117.153 101.335C117.399 101.185 117.679 101.104 117.966 101.099C118.254 101.094 118.537 101.165 118.787 101.306C119.038 101.446 119.246 101.651 119.391 101.899C119.537 102.147 119.613 102.429 119.614 102.716Z" fill="black"/>
<path d="M145.576 81.9655V148.371C145.576 148.801 145.405 149.214 145.102 149.519C144.799 149.824 144.387 149.997 143.957 150H130.933C130.503 149.997 130.091 149.824 129.788 149.519C129.484 149.214 129.314 148.801 129.314 148.371V94.5905C129.314 94.3471 129.369 94.1068 129.476 93.888C129.582 93.6692 129.737 93.4776 129.929 93.328C134.591 89.6241 138.874 85.4674 142.716 80.9188C142.93 80.6636 143.217 80.4804 143.539 80.3944C143.86 80.3084 144.201 80.3236 144.513 80.438C144.826 80.5525 145.096 80.7606 145.286 81.0339C145.476 81.3073 145.577 81.6326 145.576 81.9655Z" fill="#808080"/>
<path d="M150.626 52.5072V74.2825C150.624 74.7368 150.5 75.1821 150.266 75.5717C150.032 75.9612 149.698 76.2805 149.298 76.496C148.898 76.7114 148.448 76.8149 147.994 76.7957C147.54 76.7765 147.1 76.6352 146.719 76.3867L140.623 72.3942C131.559 84.5336 118.383 94.871 102.51 102.144C88.7633 108.435 74.3794 111.726 61.2581 111.726C57.5696 111.738 53.8859 111.46 50.2409 110.895C49.8941 110.836 49.5792 110.657 49.352 110.388C49.1249 110.12 49.0002 109.779 49 109.427V102.435C49.0014 102.218 49.0501 102.005 49.1426 101.809C49.2352 101.613 49.3693 101.44 49.5358 101.301C49.7022 101.162 49.8969 101.061 50.1063 101.006C50.3157 100.95 50.5347 100.941 50.7481 100.978C64.7758 103.482 82.0407 100.687 98.41 93.1768C112.341 86.7888 124.232 77.5305 132.336 66.9557L125.408 62.4237C125.006 62.1701 124.683 61.8082 124.478 61.3795C124.272 60.9507 124.192 60.4727 124.246 60.0003C124.3 59.5279 124.486 59.0804 124.784 58.7092C125.081 58.3381 125.477 58.0585 125.926 57.9024L147.291 50.1332C147.67 50.0052 148.073 49.9687 148.469 50.0269C148.864 50.0852 149.24 50.2363 149.565 50.4681C149.891 50.6998 150.156 51.0055 150.341 51.36C150.525 51.7144 150.623 52.1076 150.626 52.5072Z" fill="black"/>
</svg>
