<svg width="201" height="201" viewBox="0 0 201 201" fill="none" xmlns="http://www.w3.org/2000/svg">
<rect x="0.333328" y="0.285706" width="200" height="200" rx="100" fill="white"/>
<path d="M95.73 55.4008C97.63 51.9858 98.58 50.2858 100 50.2858C101.42 50.2858 102.37 51.9858 104.27 55.4008L104.76 56.2808C105.3 57.2508 105.57 57.7308 105.99 58.0508C106.415 58.3708 106.94 58.4908 107.99 58.7258L108.94 58.9458C112.63 59.7808 114.475 60.1958 114.915 61.6058C115.355 63.0208 114.095 64.4908 111.58 67.4308L110.93 68.1908C110.215 69.0258 109.855 69.4408 109.695 69.9608C109.535 70.4808 109.59 71.0358 109.695 72.1508L109.795 73.1658C110.175 77.0908 110.365 79.0558 109.22 79.9258C108.07 80.8008 106.34 80.0008 102.885 78.4108L101.995 78.0008C101.01 77.5508 100.52 77.3208 100 77.3208C99.48 77.3208 98.99 77.5508 98.005 78.0008L97.115 78.4108C93.66 80.0008 91.93 80.8008 90.78 79.9258C89.63 79.0558 89.825 77.0908 90.205 73.1658L90.305 72.1508C90.41 71.0358 90.465 70.4808 90.305 69.9608C90.145 69.4458 89.785 69.0258 89.07 68.1908L88.42 67.4308C85.905 64.4908 84.645 63.0208 85.085 61.6058C85.525 60.1958 87.37 59.7808 91.06 58.9458L92.01 58.7258C93.06 58.4908 93.585 58.3758 94.01 58.0508C94.43 57.7308 94.7 57.2508 95.24 56.2808L95.73 55.4008ZM105 90.2858H95C87.93 90.2858 84.395 90.2858 82.2 92.4858C80 94.6758 80 98.2108 80 105.286V150.286H120V105.286C120 98.2158 120 94.6808 117.8 92.4858C115.61 90.2858 112.075 90.2858 105 90.2858Z" fill="black"/>
<path opacity="0.5" d="M77.8 137.486C75.61 135.286 72.075 135.286 65 135.286C57.93 135.286 54.395 135.286 52.2 137.486C50 139.676 50 143.211 50 150.286H80C80 143.216 80 139.681 77.8 137.486ZM120 135.286V150.286H150V135.286C150 128.216 150 124.681 147.8 122.486C145.61 120.286 142.075 120.286 135 120.286C127.93 120.286 124.395 120.286 122.2 122.486C120 124.676 120 128.211 120 135.286Z" fill="black"/>
</svg>
