<svg width="172" height="40" viewBox="0 0 172 40" fill="none" xmlns="http://www.w3.org/2000/svg">
<path d="M155.026 17.2834V20.0675H165.942V17.2834H155.026ZM152.817 15.6483H168.284V21.7026H152.817V15.6483ZM156.617 13.1294H164.417V14.8529H156.617V13.1294ZM159.335 16.1786H161.478V20.8409H159.335V16.1786ZM160.396 11.2954C158.429 13.1957 154.827 15.2506 151.336 16.4659C151.049 15.8693 150.43 14.9192 149.966 14.3668C153.59 13.2841 157.214 11.207 159.026 9.24049H161.544C164.063 11.5827 167.643 13.3282 171.068 14.19C170.493 14.7866 169.919 15.6925 169.521 16.3775C166.45 15.339 162.539 13.2841 160.396 11.2954ZM155.8 17.7695L157.633 17.2613C158.031 18.0126 158.385 18.9848 158.517 19.6477L156.573 20.2222C156.485 19.5593 156.175 18.5429 155.8 17.7695ZM163.113 17.173L165.301 17.7033C164.815 18.6534 164.373 19.5814 164.019 20.2001L162.207 19.714C162.517 18.9848 162.937 17.9021 163.113 17.173ZM154.032 22.4097H167.113V29.9224H164.395V24.1332H156.639V29.9886H154.032V22.4097ZM155.534 25.017H165.522V26.7626H155.534V25.017ZM155.534 27.6686H165.522V29.392H155.534V27.6686Z" fill="black"/>
<path d="M131.671 17.3497H143.625V19.935H131.671V17.3497ZM142.763 17.3497H145.547C145.547 17.3497 145.525 18.1673 145.503 18.4987C145.26 25.2159 144.995 27.8453 144.221 28.7513C143.669 29.5025 143.05 29.7014 142.21 29.834C141.437 29.9445 140.156 29.9224 138.852 29.8782C138.808 29.1048 138.454 27.9558 137.968 27.2045C139.205 27.315 140.354 27.3371 140.907 27.3371C141.305 27.3371 141.548 27.2708 141.791 27.0278C142.321 26.4533 142.564 23.9785 142.763 17.8358V17.3497ZM134.167 9.52774L137.04 10.3674C135.383 14.2121 132.687 17.7695 129.903 19.9571C129.395 19.3826 128.246 18.3219 127.605 17.8137C130.389 15.9798 132.842 12.8863 134.167 9.52774ZM142.586 9.48354C143.978 12.2897 146.762 15.5158 149.193 17.3718C148.464 17.9463 147.447 19.029 146.939 19.7803C144.442 17.4823 141.724 13.9027 139.979 10.5221L142.586 9.48354ZM135.626 18.101H138.498C138.078 23.0726 137.128 27.6907 130.544 30.1433C130.212 29.4141 129.439 28.2872 128.82 27.7128C134.742 25.7683 135.272 22.0341 135.626 18.101Z" fill="black"/>
<path d="M110.812 16.3775H121.904V18.6976H110.812V16.3775ZM110.547 26.8731H121.948V29.1932H110.547V26.8731ZM109.376 20.9072H123.451V30.0328H120.733V23.2494H111.983V30.0328H109.376V20.9072ZM116.248 11.8699C114.436 14.4551 111.033 17.3718 107.387 19.3163C107.034 18.6976 106.304 17.7254 105.73 17.173C109.553 15.3169 113.11 11.9804 114.745 9.26258H117.507C119.916 12.6654 123.473 15.4716 127.03 16.9078C126.368 17.5707 125.749 18.4766 125.285 19.2942C121.882 17.5044 118.17 14.4993 116.248 11.8699Z" fill="black"/>
<path d="M84.12 10.0801H92.2734V12.4444H84.12V10.0801ZM86.5064 14.7866H90.3953V16.9299H86.5064V14.7866ZM92.9142 24.1111H96.2286V25.8788H92.9142V24.1111ZM99.8303 24.1111H103.189V25.8788H99.8303V24.1111ZM86.5064 19.2721H90.3953V21.4375H86.5064V19.2721ZM85.1143 11.3396H87.3018V25.1938H85.1143V11.3396ZM89.0032 11.3175H91.2128V29.9886H89.0032V11.3175ZM98.5266 20.1559H100.67V29.9886H98.5266V20.1559ZM92.2072 20.8409H94.1295V26.6963H92.2072V20.8409ZM101.929 20.8409H103.918V26.6521H101.929V20.8409ZM83.7223 24.6414C85.3795 24.4204 87.7438 24.0227 90.0638 23.625L90.2627 25.9009C88.1636 26.3207 85.9761 26.7626 84.1642 27.0941L83.7223 24.6414ZM95.3448 20.178H97.466V24.1111C97.466 26.5859 97.002 28.7734 93.8865 30.0991C93.6434 29.5909 93.0247 28.7292 92.5828 28.3756C95.0134 27.3371 95.3448 25.7904 95.3448 24.0669V20.178ZM91.6327 18.0789C93.091 17.9905 95.1017 17.8358 97.2009 17.6812L97.223 19.3826C95.3227 19.5593 93.4445 19.7582 91.8757 19.8908L91.6327 18.0789ZM91.8978 13.5934L93.0026 12.0467C93.9969 12.8642 95.1901 13.9911 95.6762 14.8308L94.5493 16.5322C94.0632 15.6704 92.9142 14.433 91.8978 13.5934ZM95.853 16.6427L97.3997 16.2007C97.93 17.2171 98.3719 18.565 98.4382 19.4488L96.8031 19.9791C96.7589 19.0953 96.3612 17.7033 95.853 16.6427ZM94.5493 9.24049L96.6926 9.88127C95.8972 11.2733 95.0134 12.9084 94.3284 13.9027L92.9363 13.3503C93.5108 12.2234 94.1958 10.4558 94.5493 9.24049ZM96.1844 12.0909L98.1068 12.7758C96.8694 14.875 95.2564 17.4381 93.9748 18.9848L92.627 18.4103C93.8865 16.731 95.3448 14.0353 96.1844 12.0909ZM98.0405 18.0126C99.5209 17.9242 101.532 17.7695 103.609 17.6149L103.653 19.2721C101.775 19.493 99.9187 19.6919 98.3719 19.8466L98.0405 18.0126ZM97.8416 13.5492L98.8802 11.9362C99.9629 12.7317 101.178 13.8586 101.686 14.7203L100.559 16.488C100.073 15.6041 98.9023 14.3668 97.8416 13.5492ZM101.996 16.6647L103.565 16.1565C104.183 17.3055 104.714 18.8081 104.802 19.7803L103.123 20.3548C103.034 19.3826 102.57 17.8579 101.996 16.6647ZM100.559 9.24049L102.747 9.90337C101.952 11.3175 101.068 12.9305 100.361 13.9469L98.8581 13.3503C99.4767 12.2234 100.184 10.4779 100.559 9.24049ZM102.239 12.0246L104.294 12.7538C103.034 14.8308 101.443 17.3939 100.14 18.9627L98.7476 18.3219C99.985 16.6647 101.421 13.9469 102.239 12.0246Z" fill="black"/>
<path d="M65.8908 15.9356H78.2425V17.416H65.8908V15.9356ZM66.9514 13.6376H77.3365V15.0959H66.9514V13.6376ZM70.8403 12.7317H73.2488V16.8194H70.8403V12.7317ZM70.5752 21.9678H72.9173V26.3428H70.5752V21.9678ZM73.0278 21.548C74.1547 22.94 76.4527 24.1553 78.7286 24.6856C78.2867 25.0833 77.668 25.8567 77.3807 26.3649C74.9723 25.5915 72.6522 24.0006 71.3264 22.1667L73.0278 21.548ZM71.9672 20.6199L73.978 21.3491C72.2766 23.2936 69.4041 24.9287 66.8188 25.8788C66.5316 25.459 65.8024 24.5972 65.3826 24.2216C67.9236 23.4703 70.5752 22.1888 71.9672 20.6199ZM76.8062 21.2386L78.3751 22.255C77.4249 23.0063 76.298 23.6692 75.4142 24.1332L74.0884 23.2273C74.9723 22.7191 76.1434 21.8352 76.8062 21.2386ZM69.2273 19.4267V20.5536H74.9502V19.4267H69.2273ZM67.0398 18.101H77.2482V21.8794H67.0398V18.101ZM62.6648 10.0801H81.6011V30.0107H78.9937V12.4665H65.1395V30.0107H62.6648V10.0801ZM64.2336 26.8289H80.4079V29.1932H64.2336V26.8289Z" fill="black"/>
<path d="M39.7733 13.3724H46.5789V15.803H39.7733V13.3724ZM42.2481 9.24049H44.767V29.9886H42.2481V9.24049ZM42.3144 15.1843L43.7506 15.7367C43.2203 19.3384 42.0492 23.7134 40.6572 26.0335C40.4141 25.238 39.8175 24.0227 39.4419 23.3156C40.7235 21.4375 41.8283 17.9242 42.3144 15.1843ZM44.6124 16.1123C45.1206 16.7089 46.9324 19.2721 47.3081 19.8908L45.7393 21.791C45.2531 20.5315 44.0158 18.1673 43.3529 17.1067L44.6124 16.1123ZM55.4836 20.2443L57.0966 18.8302C58.3119 20.0454 59.9249 21.7247 60.6762 22.7853L58.9527 24.4425C58.2677 23.3156 56.6989 21.5259 55.4836 20.2443ZM46.9987 13.1957L48.9432 12.4223C49.6723 13.9248 50.4015 15.8914 50.7109 17.1951L48.6338 18.0568C48.3908 16.7531 47.6837 14.7203 46.9987 13.1957ZM58.0246 12.2455L60.4552 13.2399C59.6156 14.8308 58.7759 16.6647 58.0467 17.8358L56.1907 16.9741C56.8315 15.6925 57.6269 13.7039 58.0246 12.2455ZM54.0474 9.26258H56.5221V26.2544C56.5221 27.2487 56.5663 27.3813 56.9419 27.3813C57.0966 27.3813 57.8037 27.3813 57.9804 27.3813C58.3561 27.3813 58.4445 26.8068 58.4887 24.7961C59.0632 25.238 59.9912 25.6799 60.6983 25.8346C60.4552 28.6629 59.8365 29.7456 58.2014 29.7456C57.8258 29.7456 56.8315 29.7456 56.4558 29.7456C54.5777 29.7456 54.0474 28.9943 54.0474 26.2323V9.26258ZM46.38 22.3655C47.4627 21.7247 49.1641 20.5536 50.7551 19.4047L51.5505 21.2165C50.2468 22.476 48.8769 23.7576 47.6395 24.8624L46.38 22.3655ZM50.3131 9.26258H52.6995V18.6092C52.6995 22.8516 51.9703 27.536 47.7942 30.0991C47.4407 29.5909 46.6231 28.6408 46.0928 28.1768C50.0922 26.2544 50.3131 22.1225 50.3131 18.5871V9.26258Z" fill="black"/>
<path d="M14.5088 3.29521C14.7495 3.14021 14.9671 2.98102 15.1974 2.85221C15.4715 2.69302 15.6505 2.77994 15.7289 3.08994C15.7815 3.25554 15.8079 3.42831 15.8074 3.60206C15.7792 4.03773 15.956 4.41685 16.1025 4.80749C16.1072 4.82826 16.1159 4.84787 16.1283 4.86516C16.1407 4.88245 16.1565 4.89706 16.1747 4.90811C16.1928 4.91916 16.2131 4.92643 16.2341 4.92947C16.2551 4.93252 16.2766 4.93128 16.2971 4.92583C18.9917 4.60431 21.5387 5.14681 23.9883 6.24855C26.0965 7.1954 27.988 8.56524 29.5458 10.2733C31.8197 12.747 33.2596 15.6354 33.7755 18.9657C33.8777 19.6522 33.9371 20.3444 33.9534 21.0383C34.0415 23.9972 33.3623 26.9284 31.9819 29.5465C31.5253 30.4175 30.9879 31.2436 30.3767 32.0139C30.2051 32.2317 30.0418 32.2914 29.865 32.2066C29.6882 32.1217 29.6379 31.972 29.6861 31.7081C30.1046 29.3831 28.5852 27.277 26.2486 26.9712C25.3989 26.8602 24.5984 27.0215 23.9077 27.5692C23.3573 28.0059 23.1208 28.6395 23.2935 29.2124C23.5143 29.9455 24.3336 30.4398 25.0274 30.2597C25.7494 30.0701 26.2517 29.2333 26.0853 28.4887C26.0456 28.3075 26.0393 28.14 26.2004 28.0153C26.3616 27.8907 26.5269 27.9473 26.6881 28.03C28.0735 28.7474 28.6763 30.6157 27.9532 32.0715C27.2866 33.4172 26.1607 34.1147 24.681 34.2551C23.6733 34.3504 22.7368 34.1011 21.8484 33.6393C21.5146 33.4654 21.4696 33.28 21.6852 32.9648C22.0315 32.4585 22.1963 31.8497 22.1526 31.2377C22.1089 30.6256 21.8593 30.0465 21.4445 29.5946C21.3035 29.4281 21.1267 29.2955 20.9274 29.2069C20.7281 29.1182 20.5114 29.0757 20.2934 29.0825C19.9795 29.093 19.6478 29.426 19.6227 29.7287C19.5944 30.0774 19.8686 30.4953 20.1752 30.5665C20.2722 30.5965 20.3764 30.5931 20.4713 30.5568C20.5661 30.5206 20.6461 30.4536 20.6984 30.3665C20.8658 30.1308 21.0521 30.0858 21.3011 30.2324C21.6088 30.4147 21.7092 30.7163 21.7301 31.0483C21.816 32.4213 20.6565 32.791 19.81 32.5857C19.5051 32.5092 19.2107 32.3959 18.9331 32.2485C17.3845 31.4409 15.6994 30.9285 13.9636 30.7372C12.6959 30.5975 11.4154 30.6246 10.1547 30.8179C8.60012 31.0477 7.09529 31.5377 5.70321 32.2673C5.43742 32.4066 5.18 32.5616 4.91735 32.7072C4.69132 32.8328 4.53017 32.8056 4.37216 32.6024C2.96304 30.8397 1.90323 28.8239 1.24965 26.6633C0.678058 24.7802 0.437299 22.8121 0.538089 20.8467C0.622752 19.3248 0.896582 17.8194 1.35325 16.3653C1.46835 15.9894 1.59392 15.6155 1.72473 15.2437C1.77077 15.1159 1.74461 15.0552 1.62008 14.9997C1.47203 14.9361 1.33162 14.856 1.20152 14.7609C0.711794 14.3943 0.60192 13.8026 0.955609 13.2863C1.14506 13.01 1.38799 12.7746 1.67001 12.594C1.95203 12.4134 2.2674 12.2912 2.59744 12.2348C2.78673 12.1956 2.97883 12.1715 3.17192 12.1626C3.2378 12.1629 3.30263 12.1461 3.36006 12.1138C3.41748 12.0815 3.46552 12.0348 3.49945 11.9783C4.18827 10.9518 4.98687 10.0037 5.8811 9.15058C6.38018 8.68646 6.91556 8.26306 7.48212 7.88441C7.56165 7.82995 7.61397 7.7912 7.55014 7.68124C7.05204 6.81723 7.33039 5.90818 8.09113 5.3437C9.27568 4.46607 10.3252 3.43869 11.3957 2.43434C12.2036 1.67506 13.0062 0.907396 13.8579 0.201526C13.8998 0.168013 13.9406 0.133452 13.9846 0.0967971C14.2472 -0.090667 14.5004 0.000446475 14.5726 0.315679C14.7756 1.21822 14.7673 2.1555 14.5486 3.05433C14.535 3.11298 14.5193 3.17163 14.5067 3.23028C14.5052 3.25193 14.5059 3.27369 14.5088 3.29521ZM23.8722 7.35344C23.8931 7.71789 23.8722 8.03103 24.0344 8.32846C24.1518 8.54191 24.196 8.78809 24.1599 9.02909C24.1461 9.10969 24.15 9.19234 24.1715 9.27124C24.1931 9.35013 24.2316 9.42334 24.2845 9.48571C24.5241 9.81246 24.703 10.1759 24.5649 10.5864C24.502 10.822 24.4637 11.0634 24.4508 11.3069C24.3535 12.0725 24.072 12.7281 23.3238 13.0779C23.2804 13.0961 23.2454 13.1301 23.226 13.173C23.2066 13.216 23.2042 13.2647 23.2192 13.3094C23.2598 13.668 23.2425 14.0308 23.1679 14.3839C23.1418 14.5305 23.1941 14.5598 23.3207 14.5535C23.6074 14.541 23.8941 14.5305 24.1809 14.5242C25.2213 14.5076 26.2594 14.4225 27.2887 14.2697C27.746 14.1995 28.2064 14.1482 28.6124 13.8644C28.9086 13.655 29.2863 13.8812 29.3366 14.2509C29.3588 14.4376 29.3328 14.6269 29.2612 14.8007C29.0467 15.361 28.6491 15.7652 28.1541 16.0794C28.0971 16.1117 28.0484 16.157 28.0121 16.2116C27.9757 16.2661 27.9527 16.3285 27.9448 16.3936C27.9041 16.7067 27.7897 17.0057 27.611 17.266C27.3672 17.6043 27.1485 17.9457 27.0878 18.3688C27.0701 18.4402 27.0408 18.5081 27.001 18.5699C26.6933 19.1867 26.1795 19.5627 25.5443 19.7763C25.4445 19.8066 25.3525 19.8581 25.2745 19.9274C25.1964 19.9966 25.1343 20.0819 25.0923 20.1775C24.747 20.8655 24.207 21.298 23.418 21.3944C22.736 21.4785 22.0488 21.5135 21.3618 21.4991C21.0207 21.4918 21.0196 21.4939 20.9244 21.8133C20.6345 22.78 20.2338 23.6775 19.428 24.3415C19.1832 24.5425 19.1141 24.8452 19.0869 25.1521C19.0614 25.6995 19.1093 26.2479 19.2292 26.7827C19.3506 27.4173 18.9247 27.8362 18.2822 27.7252C18.0046 27.6789 17.7416 27.5684 17.5141 27.4027C17.2311 27.204 16.992 26.9491 16.8119 26.6537C16.6319 26.3583 16.5147 26.029 16.4677 25.6862C16.3776 25.1051 16.3632 24.5147 16.4248 23.9299C16.4436 23.7456 16.385 23.6482 16.2061 23.5654C15.4318 23.2104 14.7484 22.7464 14.4167 21.9097C14.378 21.8144 14.3288 21.8154 14.2472 21.8542C13.2761 22.3087 12.3637 22.1401 11.492 21.586C10.7469 21.1127 10.1683 20.4686 9.66181 19.7564C9.63277 19.7056 9.58963 19.6644 9.53763 19.6376C9.48563 19.6108 9.42699 19.5997 9.36881 19.6056C8.61135 19.6265 7.85995 19.4652 7.17761 19.1354C5.96473 18.5605 4.93359 17.6622 4.19741 16.5392C3.81861 15.9757 3.35086 15.5516 2.69476 15.3432C2.49698 15.2803 2.39967 15.3107 2.30549 15.5034C1.48626 17.1911 1.02319 19.0296 0.945145 20.9043C0.879418 22.193 0.97752 23.4849 1.2371 24.7489C1.78647 27.388 2.89253 29.7601 4.64214 31.8212C4.73423 31.9259 4.80015 31.95 4.92363 31.8735C5.31072 31.6356 5.71427 31.4256 6.13119 31.2452C8.48538 30.1967 11.0668 29.7629 13.634 29.9842C14.785 30.0797 15.9212 30.3074 17.0202 30.6629C17.8432 30.9381 18.6437 31.2767 19.4144 31.6756C19.6946 31.8356 20.0127 31.917 20.3353 31.9112C20.7266 31.8871 20.9767 31.663 21.0018 31.3216C21.0123 31.1813 20.9935 31.1205 20.8281 31.1897C20.5271 31.3257 20.1853 31.3405 19.8736 31.2311C19.5619 31.1217 19.3042 30.8965 19.1539 30.6021C18.886 30.113 18.7855 29.6009 19.1026 29.0993C19.4197 28.5976 19.8738 28.2981 20.4901 28.3526C20.9944 28.3949 21.4693 28.6077 21.8369 28.9558C22.8948 29.9402 23.1909 31.574 22.5526 32.9009C22.448 33.1271 22.448 33.1397 22.6834 33.2277C23.0813 33.3835 23.4984 33.485 23.9234 33.5293C25.1854 33.6414 26.236 33.2507 27.0303 32.2411C27.7334 31.3467 27.7041 29.9706 26.9706 29.1684C26.9371 29.1317 26.9162 29.071 26.8524 29.0846C26.8032 29.249 26.7624 29.4103 26.7048 29.5664C26.3333 30.5665 25.3371 31.1834 24.3744 30.9865C23.4996 30.8074 22.8938 30.2806 22.6196 29.4313C22.3528 28.6018 22.5987 27.8603 23.1951 27.2623C24.1212 26.3282 25.2733 26.0705 26.5343 26.2831C28.5612 26.6245 30.0293 28.0876 30.4123 30.1005C30.4395 30.246 30.4604 30.3937 30.4876 30.5644C32.9341 26.8392 33.8843 21.4091 32.1776 16.5758C30.6906 12.3773 27.8276 9.39041 23.8722 7.35344ZM14.7987 4.38019C14.7686 4.38167 14.7388 4.38623 14.7097 4.39381C14.6668 4.42523 14.625 4.45769 14.5831 4.49016C14.0045 4.94401 13.374 5.32722 12.7048 5.6317C12.4798 5.73643 12.2967 5.69244 12.19 5.52697C12.0832 5.3615 12.1303 5.17508 12.3176 5.02113C12.7529 4.66506 13.1118 4.25662 13.3117 3.71726C13.4815 3.25815 13.5994 2.78146 13.6633 2.2961C13.6978 2.03742 13.7585 1.77874 13.7125 1.49702C13.6717 1.51168 13.6644 1.54834 13.6424 1.57138C12.3951 2.87699 11.0985 4.13094 9.75285 5.33322C9.39392 5.65369 8.99419 5.92389 8.63527 6.24332C8.29519 6.54598 8.26484 6.83503 8.49296 7.22567C8.67789 7.53525 8.83612 7.86003 8.96594 8.1965C9.35311 9.23122 9.39497 10.2576 8.8613 11.2567C8.43331 12.0537 7.76361 12.5909 6.95472 12.9627C6.14584 13.3345 5.30975 13.5104 4.42344 13.3628C3.97049 13.2825 3.50945 13.2579 3.05054 13.2895C2.66002 13.3132 2.2913 13.4777 2.01249 13.7524C1.90052 13.8571 1.91831 13.922 2.05435 13.9817C2.27744 14.0713 2.5069 14.1441 2.7408 14.1995C3.56014 14.4205 4.28217 14.7975 4.80957 15.4877C5.06071 15.8166 5.26894 16.1779 5.54206 16.4858C6.67324 17.7425 7.95405 18.6851 9.77273 18.4882C9.88708 18.4745 10.0028 18.4984 10.1023 18.5564C10.2018 18.6145 10.2797 18.7034 10.3242 18.8097C10.4654 19.0751 10.6252 19.3303 10.8024 19.5732C11.1875 20.1167 11.6259 20.6079 12.1952 20.9671C12.6797 21.2719 13.1987 21.3954 13.7648 21.23C14.1488 21.1169 14.1499 21.1022 13.9207 20.7838C13.4782 20.1959 13.119 19.5495 12.8534 18.8631C12.6567 18.3217 12.5761 17.7802 12.8241 17.2262C12.9048 17.0201 12.9453 16.8004 12.9434 16.579C12.979 15.6479 12.8042 14.7452 12.5708 13.856C12.4662 13.456 12.485 13.3994 12.8262 13.1816C12.9664 13.0915 13.1087 13.0025 13.2447 12.902C14.3142 12.0966 14.9316 11.0786 14.7495 9.68574C14.7432 9.63338 14.7568 9.56635 14.7035 9.54017C14.6323 9.50456 14.5988 9.58311 14.5611 9.61976C14.2436 9.92612 13.897 10.2008 13.5262 10.4398C13.3169 10.5717 13.0962 10.5299 12.9905 10.3351C12.9472 10.2583 12.9323 10.1687 12.9486 10.0821C12.9649 9.99552 13.0112 9.91745 13.0794 9.86169C13.3714 9.56845 13.6654 9.2773 13.9312 8.95893C14.5507 8.2164 15.0414 7.4058 15.2455 6.44544C15.2748 6.30615 15.3344 6.16268 15.28 5.97835C15.0387 6.41633 14.7256 6.81069 14.3539 7.14503C14.0557 7.42343 13.7125 7.64933 13.3389 7.8132C13.2633 7.85046 13.1771 7.86015 13.0951 7.8406C13.0131 7.82105 12.9405 7.77349 12.8898 7.70612C12.8391 7.63874 12.8134 7.55577 12.8173 7.47151C12.8212 7.38725 12.8543 7.30697 12.9109 7.24452C12.9884 7.15236 13.0689 7.06334 13.1516 6.97642C13.6315 6.49198 14.0491 5.94948 14.3948 5.3615C14.5668 5.0511 14.7023 4.7218 14.7987 4.38019ZM16.6916 5.79194C16.6351 5.79194 16.5347 5.79717 16.4342 5.79194C16.3003 5.78356 16.2427 5.83278 16.2438 5.97521C16.2501 6.94395 15.9162 7.80587 15.3899 8.60076C15.349 8.65612 15.3223 8.72073 15.3123 8.78886C15.3022 8.857 15.3091 8.92656 15.3323 8.99139C15.6212 9.99574 15.5531 10.9718 15.0655 11.906C14.6888 12.6286 14.1185 13.1743 13.454 13.6277C13.3494 13.6989 13.2887 13.7607 13.3253 13.9011C13.5 14.559 13.6128 15.2318 13.6623 15.9108C13.7031 16.4742 13.6811 17.0345 13.4655 17.5666C13.3893 17.7533 13.37 17.9585 13.4101 18.1562C13.5691 18.9699 14.0139 19.6465 14.4743 20.3125C14.5088 20.3628 14.5475 20.3963 14.5957 20.323C14.8772 19.8978 15.0864 19.4412 15.0498 18.9207C15.0137 18.5205 14.9052 18.1301 14.7296 17.7687C14.5622 17.4056 14.3958 17.0415 14.2305 16.6764C14.1984 16.6244 14.1862 16.5625 14.1962 16.5022C14.2062 16.442 14.2377 16.3874 14.2849 16.3486C14.8939 15.8312 15.7499 15.6322 16.4729 16.0731C16.7869 16.2658 17.0495 16.5277 17.3341 16.7581C17.7956 17.133 18.2571 17.5079 18.8316 17.7006C19.0726 17.7952 19.3355 17.8197 19.5898 17.7713C19.8442 17.7229 20.0797 17.6037 20.2693 17.4273C20.644 17.1005 20.8909 16.6806 21.1065 16.2428C21.1818 16.092 21.0824 16.0868 20.9767 16.0972C20.1951 16.1789 19.5117 15.9349 18.9174 15.4448C18.5176 15.118 18.2288 14.7211 18.209 14.1744C18.1939 14.0143 18.1466 13.859 18.0698 13.7178C17.847 13.2763 17.5746 12.8616 17.2578 12.482C17.0589 12.2348 17.1311 11.951 17.4252 11.8327C17.5815 11.7744 17.7488 11.7519 17.9149 11.7667C18.2142 11.7814 18.5009 11.9144 18.8065 11.8463C19.2423 11.7556 19.6381 11.5286 19.9366 11.198C20.0795 11.0556 20.1794 10.8756 20.2245 10.6788C20.2697 10.482 20.2584 10.2764 20.1919 10.0858C20.1216 9.86832 20.1312 9.63282 20.2191 9.42183C20.4012 8.94322 20.7612 8.64055 21.2048 8.41958C21.8077 8.12525 22.3343 7.69508 22.7431 7.16283C22.8979 6.96071 22.8843 6.93452 22.6531 6.84865C20.7497 6.11869 18.7615 5.85687 16.6916 5.79194ZM28.0892 15.0217C27.9113 15.052 27.7941 15.074 27.6759 15.0929C26.9647 15.2061 26.2473 15.276 25.5276 15.3023C24.8024 15.3306 24.0762 15.4008 23.349 15.3369C22.6531 15.2751 22.1916 15.516 21.9886 16.07C21.7866 16.6022 21.4985 17.0976 21.1358 17.5362C20.3436 18.5049 19.2836 18.7081 18.1849 18.1059C17.8857 17.9423 17.6026 17.7509 17.3394 17.5341C16.97 17.2283 16.6069 16.9057 16.2333 16.6114C16.1092 16.5133 15.9632 16.4466 15.8078 16.417C15.6524 16.3875 15.4921 16.396 15.3407 16.4418C15.1314 16.4962 15.1314 16.5298 15.2601 16.6931C15.888 17.4629 16.1517 18.3447 16.0031 19.3271C15.9085 19.873 15.6323 20.3708 15.2193 20.7398C15.1705 20.7789 15.1345 20.8317 15.1159 20.8914C15.0972 20.9511 15.0968 21.015 15.1147 21.075C15.1838 21.4164 15.4025 21.6405 15.6641 21.8343C16.1213 22.1736 16.6519 22.3579 17.1803 22.5496C17.3884 22.6199 17.5642 22.7629 17.6756 22.9523C17.7871 23.1417 17.8267 23.3649 17.7872 23.5811C17.6878 24.2095 17.7088 24.8379 17.7318 25.46C17.7413 25.7304 17.8437 25.9893 18.0216 26.1931C18.0394 25.8087 18.0112 25.46 18.0687 25.1175C18.1807 24.4462 18.4413 23.866 19.0356 23.4806C19.179 23.3818 19.3058 23.2609 19.4113 23.1224C19.8926 22.5276 20.1438 21.8269 20.3531 21.1032C20.4357 20.81 20.5623 20.7367 20.8648 20.7587C21.7019 20.8173 22.5286 20.8446 23.3605 20.7294C23.5719 20.704 23.7742 20.628 23.9501 20.5079C24.1261 20.3877 24.2705 20.227 24.3713 20.0392C24.32 20.0392 24.2939 20.0329 24.2667 20.0392C23.7201 20.0829 23.1702 20.025 22.6447 19.8685C22.4218 19.8067 22.3046 19.6528 22.3203 19.4705C22.336 19.2883 22.4804 19.148 22.7232 19.1302C23.2945 19.0883 23.8669 19.0579 24.4383 19.0087C24.9172 18.9844 25.3814 18.8353 25.785 18.5761C25.7592 18.5698 25.7323 18.5698 25.7065 18.5761C25.0965 18.6746 24.4958 18.662 23.914 18.4316C23.6964 18.3457 23.6064 18.1981 23.6378 18.0001C23.666 17.8263 23.8115 17.708 24.0281 17.686C24.3598 17.6577 24.6926 17.6346 25.0243 17.6022C25.6846 17.5383 26.2988 17.3665 26.7561 16.8398C26.7927 16.7968 26.8712 16.7528 26.8419 16.6952C26.8021 16.6167 26.7226 16.6764 26.663 16.6879C26.14 16.7949 25.6072 16.8468 25.0735 16.8429C24.793 16.8429 24.6392 16.6921 24.6392 16.4722C24.6392 16.2522 24.7679 16.1402 25.0578 16.115C25.7714 16.0553 26.4777 15.9611 27.1422 15.6699C27.5002 15.5233 27.8229 15.3024 28.0892 15.0217ZM23.1208 7.88127C22.6042 8.41513 21.9991 8.85555 21.3325 9.18305C21.2393 9.23551 21.1555 9.30311 21.0845 9.38308C20.9985 9.45716 20.9364 9.55511 20.906 9.66455C20.8756 9.77398 20.8784 9.88997 20.9139 9.99783C21.0177 10.3419 21.0022 10.711 20.87 11.0451C20.5561 11.8829 19.5327 12.5888 18.6202 12.6087C18.5082 12.6087 18.3439 12.5197 18.3063 12.6087C18.256 12.7134 18.4025 12.8245 18.4653 12.9313C18.6746 13.2905 18.8985 13.6497 18.9216 14.0739C18.9398 14.3559 19.0684 14.6193 19.2794 14.807C19.5387 15.0718 19.8691 15.2558 20.2306 15.3369C20.8156 15.4563 21.3817 15.4668 21.8494 14.9902C21.9215 14.9312 21.9973 14.877 22.0765 14.8279C22.1886 14.751 22.2831 14.6511 22.3537 14.5348C22.4242 14.4185 22.4692 14.2885 22.4857 14.1535C22.5171 13.7475 22.5129 13.3396 22.4731 12.9344C22.4564 12.6726 22.5464 12.5312 22.7964 12.4893C23.2569 12.4108 23.4975 12.1092 23.6336 11.6986C23.7079 11.4818 23.6932 11.4693 23.4777 11.5185C23.2359 11.573 23.0528 11.4839 22.9932 11.2839C22.9335 11.0839 23.0308 10.9236 23.2548 10.8336C23.4079 10.7855 23.5542 10.718 23.6901 10.6325C23.892 10.4838 23.9276 10.3099 23.8094 10.0921C23.7612 10.0031 23.7225 9.99365 23.644 10.0596C23.5379 10.1507 23.4245 10.233 23.305 10.3057C23.2263 10.3538 23.1321 10.3695 23.0422 10.3496C22.9522 10.3297 22.8734 10.2757 22.8223 10.199C22.7711 10.1222 22.7517 10.0287 22.7679 9.93788C22.7842 9.8471 22.8349 9.76613 22.9095 9.71193C23.0026 9.63652 23.1062 9.57264 23.1941 9.49095C23.395 9.30348 23.4693 9.06156 23.395 8.8521C23.2764 8.98949 23.1419 9.11219 22.9942 9.21761C22.9353 9.26535 22.8622 9.2921 22.7864 9.29362C22.7106 9.29513 22.6364 9.27134 22.5757 9.22599C22.5141 9.18451 22.4673 9.1245 22.4421 9.05464C22.4169 8.98479 22.4146 8.90872 22.4354 8.83744C22.4643 8.74058 22.5257 8.65662 22.6091 8.59971C22.8341 8.39339 23.0413 8.18708 23.1208 7.88127ZM8.18322 9.55693C8.17874 9.26134 8.12352 8.96873 8.01998 8.69187C7.93731 8.45099 7.93626 8.4489 7.72803 8.59238C6.84527 9.2051 6.04575 9.92994 5.34952 10.7487C4.9885 11.1677 4.65156 11.6065 4.32612 12.0558C4.22985 12.1898 4.25183 12.2286 4.41088 12.2401C4.58877 12.2537 4.76666 12.3061 4.94455 12.3071C5.75853 12.3127 6.55082 12.0446 7.19435 11.5457C7.81593 11.0734 8.19264 10.4649 8.18322 9.55693Z" fill="black"/>
<path d="M18.5669 32.9816C18.2624 33.0612 17.9683 33.0496 17.6816 33.0779C15.75 33.2758 13.8411 33.6538 11.9797 34.2069C10.7072 34.5818 9.45363 35.0227 8.15398 35.3055C6.99141 35.5579 5.82152 35.7569 4.62755 35.7244C3.85007 35.7014 3.08409 35.5914 2.38403 35.2154C1.9257 34.9683 1.55632 34.6331 1.36587 34.1304C1.35412 34.0995 1.34502 34.0676 1.33866 34.0351C1.33749 34.0042 1.33995 33.9733 1.34599 33.943C1.50253 34.0578 1.67679 34.1463 1.86187 34.2048C2.34856 34.3253 2.85287 34.3576 3.35092 34.3001C5.2418 34.1367 7.02594 33.5408 8.81218 32.947C10.7198 32.3124 12.6724 31.9521 14.691 32.0369C15.9331 32.0882 17.1417 32.3061 18.2875 32.8119C18.394 32.8428 18.4904 32.9013 18.5669 32.9816Z" fill="black"/>
<path d="M28.2378 34.9453C28.0938 35.1321 27.9164 35.2905 27.7146 35.4124C26.5112 36.2125 25.1802 36.689 23.7654 36.9404C21.7594 37.2965 19.7639 37.1834 17.782 36.7603C16.5954 36.5068 15.4129 36.2261 14.2053 36.0785C13.3389 35.9737 12.4704 35.8753 11.5956 36.0146C11.5035 36.0292 11.3779 36.1277 11.3235 36.0355C11.2691 35.9434 11.3989 35.8648 11.4606 35.7894C11.8792 35.2836 12.4296 34.9788 13.0302 34.7599C13.7694 34.504 14.545 34.3685 15.3271 34.3588C16.9082 34.3096 18.4486 34.584 19.9805 34.9359C21.1973 35.213 22.4377 35.3733 23.6848 35.4145C25.1861 35.4859 26.6896 35.3328 28.1457 34.96C28.1762 34.9535 28.2069 34.9486 28.2378 34.9453Z" fill="black"/>
<path d="M30.8099 35.7171C30.8382 35.7643 30.8099 35.7988 30.7921 35.8323C30.0178 37.3425 28.9567 38.5846 27.4268 39.3701C25.9618 40.1231 24.4309 40.1576 22.8728 39.7031C21.8065 39.3889 20.8344 38.882 19.9083 38.2756C19.8944 38.267 19.8827 38.2552 19.8741 38.2412C19.8656 38.2272 19.8604 38.2114 19.8591 38.195C20.015 38.2285 20.1731 38.2641 20.3269 38.2934C21.1944 38.4481 22.0795 38.4781 22.9555 38.3825C25.7044 38.1196 28.2012 37.1069 30.5943 35.802C30.6655 35.7653 30.7241 35.7046 30.8099 35.7171Z" fill="black"/>
<path d="M23.4474 25.6862C23.417 26.1512 23.3804 26.6026 23.1627 27.0173C22.8812 27.5557 22.3769 27.7787 21.8024 27.5902C21.3119 27.4431 20.8844 27.1365 20.5875 26.7189C20.4579 26.5424 20.3801 26.3332 20.3629 26.1148C20.3458 25.8965 20.3898 25.6777 20.4902 25.4831C20.6643 25.1359 20.9148 24.8326 21.2227 24.596C21.6565 24.2497 22.133 23.9607 22.6406 23.7362C22.6607 23.7225 22.6834 23.7129 22.7073 23.7082C22.7311 23.7034 22.7557 23.7036 22.7796 23.7086C22.8034 23.7135 22.826 23.7233 22.846 23.7372C22.866 23.7511 22.8829 23.769 22.8959 23.7896C23.2423 24.1897 23.3406 24.6777 23.4065 25.1783C23.4306 25.3501 23.4358 25.5239 23.4474 25.6862ZM22.7149 25.6381C22.7153 25.3363 22.6752 25.0358 22.5956 24.7447C22.5788 24.6756 22.5631 24.5772 22.4574 24.64C21.9646 24.9238 21.479 25.2202 21.1766 25.726C21.0291 25.9732 21.0573 26.1858 21.2499 26.4057C21.4276 26.6063 21.6493 26.763 21.8976 26.8634C22.2482 27.01 22.4501 26.9199 22.583 26.5607C22.6841 26.2641 22.7295 25.9513 22.717 25.6381H22.7149Z" fill="black"/>
<path d="M14.5088 3.29521C14.7495 3.14021 14.9671 2.98102 15.1974 2.85221C15.4715 2.69302 15.6505 2.77994 15.7289 3.08994C15.7815 3.25554 15.8079 3.42831 15.8074 3.60206C15.7792 4.03773 15.956 4.41685 16.1025 4.80749C16.1072 4.82826 16.1159 4.84787 16.1283 4.86516C16.1407 4.88245 16.1565 4.89706 16.1747 4.90811C16.1928 4.91916 16.2131 4.92643 16.2341 4.92947C16.2551 4.93252 16.2766 4.93128 16.2971 4.92583C18.9917 4.60431 21.5387 5.14681 23.9883 6.24855C26.0965 7.1954 27.988 8.56524 29.5458 10.2733C31.8197 12.747 33.2596 15.6354 33.7755 18.9657C33.8777 19.6522 33.9371 20.3444 33.9534 21.0383C34.0415 23.9972 33.3623 26.9284 31.9819 29.5465C31.5253 30.4175 30.9879 31.2436 30.3767 32.0139C30.2051 32.2317 30.0418 32.2914 29.865 32.2066C29.6882 32.1217 29.6379 31.972 29.6861 31.7081C30.1046 29.3831 28.5852 27.277 26.2486 26.9712C25.3989 26.8602 24.5984 27.0215 23.9077 27.5692C23.3573 28.0059 23.1208 28.6395 23.2935 29.2124C23.5143 29.9455 24.3336 30.4398 25.0274 30.2597C25.7494 30.0701 26.2517 29.2333 26.0853 28.4887C26.0456 28.3075 26.0393 28.14 26.2004 28.0153C26.3616 27.8907 26.5269 27.9473 26.6881 28.03C28.0735 28.7474 28.6763 30.6157 27.9532 32.0715C27.2866 33.4172 26.1607 34.1147 24.681 34.2551C23.6733 34.3504 22.7368 34.1011 21.8484 33.6393C21.5146 33.4654 21.4696 33.28 21.6852 32.9648C22.0315 32.4585 22.1963 31.8497 22.1526 31.2377C22.1089 30.6256 21.8593 30.0465 21.4445 29.5946C21.3035 29.4281 21.1267 29.2955 20.9274 29.2069C20.7281 29.1182 20.5114 29.0757 20.2934 29.0825C19.9795 29.093 19.6478 29.426 19.6227 29.7287C19.5944 30.0774 19.8686 30.4953 20.1752 30.5665C20.2722 30.5965 20.3764 30.5931 20.4713 30.5568C20.5661 30.5206 20.6461 30.4536 20.6984 30.3665C20.8658 30.1309 21.0521 30.0858 21.3011 30.2324C21.6088 30.4147 21.7092 30.7163 21.7301 31.0483C21.816 32.4213 20.6565 32.791 19.81 32.5857C19.5051 32.5092 19.2107 32.3959 18.9331 32.2485C17.3845 31.4409 15.6994 30.9285 13.9636 30.7372C12.6959 30.5975 11.4154 30.6246 10.1547 30.8179C8.60012 31.0477 7.09529 31.5377 5.70321 32.2673C5.43742 32.4066 5.18 32.5616 4.91735 32.7072C4.69132 32.8328 4.53017 32.8056 4.37216 32.6024C2.96304 30.8397 1.90323 28.8239 1.24965 26.6633C0.678058 24.7802 0.437299 22.8121 0.538089 20.8467C0.622752 19.3248 0.896582 17.8194 1.35325 16.3653C1.46835 15.9894 1.59392 15.6155 1.72473 15.2437C1.77077 15.1159 1.74461 15.0552 1.62009 14.9997C1.47203 14.9361 1.33162 14.856 1.20152 14.7609C0.711794 14.3943 0.60192 13.8026 0.955609 13.2863C1.14506 13.01 1.38799 12.7746 1.67001 12.594C1.95203 12.4134 2.2674 12.2912 2.59744 12.2348C2.78673 12.1956 2.97883 12.1715 3.17192 12.1626C3.2378 12.1629 3.30263 12.1461 3.36006 12.1138C3.41748 12.0815 3.46552 12.0348 3.49945 11.9783C4.18827 10.9518 4.98687 10.0037 5.8811 9.15058C6.38018 8.68646 6.91556 8.26306 7.48212 7.88441C7.56165 7.82995 7.61397 7.7912 7.55014 7.68124C7.05204 6.81723 7.33039 5.90818 8.09113 5.3437C9.27568 4.46607 10.3252 3.43869 11.3957 2.43434C12.2036 1.67506 13.0062 0.907396 13.8579 0.201526C13.8998 0.168013 13.9406 0.133452 13.9846 0.0967971C14.2472 -0.090667 14.5004 0.000446467 14.5726 0.315679C14.7756 1.21822 14.7673 2.1555 14.5486 3.05433C14.535 3.11298 14.5193 3.17163 14.5067 3.23028C14.5052 3.25193 14.5059 3.27369 14.5088 3.29521ZM23.8722 7.35344C23.8931 7.71789 23.8722 8.03103 24.0344 8.32846C24.1518 8.54191 24.196 8.78809 24.1599 9.02909C24.1461 9.10969 24.15 9.19234 24.1715 9.27124C24.1931 9.35013 24.2316 9.42334 24.2845 9.48571C24.5241 9.81247 24.703 10.1759 24.5649 10.5864C24.502 10.822 24.4637 11.0635 24.4508 11.3069C24.3535 12.0725 24.072 12.7281 23.3238 13.0779C23.2804 13.0961 23.2454 13.1301 23.226 13.173C23.2066 13.216 23.2042 13.2647 23.2192 13.3094C23.2598 13.668 23.2425 14.0308 23.1679 14.3839C23.1418 14.5305 23.1941 14.5598 23.3207 14.5535C23.6074 14.541 23.8941 14.5305 24.1809 14.5242C25.2213 14.5076 26.2594 14.4225 27.2887 14.2697C27.746 14.1995 28.2064 14.1482 28.6124 13.8644C28.9086 13.655 29.2863 13.8812 29.3366 14.2509C29.3588 14.4376 29.3328 14.6269 29.2612 14.8007C29.0467 15.361 28.6491 15.7652 28.1541 16.0794C28.0971 16.1117 28.0484 16.157 28.0121 16.2116C27.9757 16.2661 27.9527 16.3285 27.9448 16.3936C27.9041 16.7067 27.7897 17.0057 27.611 17.266C27.3672 17.6043 27.1485 17.9457 27.0878 18.3688C27.0701 18.4402 27.0408 18.5081 27.001 18.5699C26.6933 19.1867 26.1795 19.5627 25.5443 19.7763C25.4446 19.8066 25.3525 19.8581 25.2745 19.9274C25.1964 19.9966 25.1343 20.0819 25.0923 20.1775C24.747 20.8655 24.207 21.298 23.418 21.3944C22.736 21.4785 22.0488 21.5135 21.3618 21.4991C21.0207 21.4918 21.0196 21.4939 20.9244 21.8133C20.6345 22.78 20.2338 23.6775 19.428 24.3415C19.1832 24.5425 19.1141 24.8452 19.0869 25.1521C19.0614 25.6995 19.1093 26.2479 19.2292 26.7827C19.3506 27.4173 18.9247 27.8362 18.2822 27.7252C18.0046 27.6789 17.7416 27.5684 17.5141 27.4027C17.2311 27.2041 16.992 26.9491 16.8119 26.6537C16.6319 26.3583 16.5147 26.029 16.4677 25.6862C16.3776 25.1051 16.3632 24.5147 16.4248 23.9299C16.4436 23.7456 16.385 23.6482 16.2061 23.5654C15.4318 23.2104 14.7484 22.7464 14.4167 21.9097C14.378 21.8144 14.3288 21.8154 14.2472 21.8542C13.2761 22.3087 12.3637 22.1401 11.492 21.5861C10.7469 21.1127 10.1683 20.4686 9.66181 19.7564C9.63277 19.7056 9.58963 19.6644 9.53763 19.6376C9.48563 19.6108 9.42699 19.5997 9.36881 19.6056C8.61135 19.6265 7.85995 19.4652 7.17761 19.1354C5.96473 18.5605 4.93359 17.6622 4.19741 16.5392C3.81861 15.9757 3.35086 15.5516 2.69476 15.3432C2.49698 15.2803 2.39967 15.3107 2.30549 15.5034C1.48626 17.1911 1.02319 19.0296 0.945145 20.9043C0.879418 22.193 0.97752 23.4849 1.2371 24.7489C1.78647 27.388 2.89253 29.7601 4.64214 31.8212C4.73423 31.9259 4.80015 31.95 4.92363 31.8735C5.31072 31.6356 5.71427 31.4256 6.13119 31.2452C8.48538 30.1967 11.0668 29.7629 13.634 29.9842C14.785 30.0797 15.9212 30.3074 17.0202 30.6629C17.8432 30.9381 18.6437 31.2767 19.4144 31.6756C19.6946 31.8356 20.0127 31.9171 20.3353 31.9112C20.7266 31.8871 20.9767 31.663 21.0018 31.3216C21.0123 31.1813 20.9935 31.1205 20.8281 31.1897C20.5271 31.3257 20.1853 31.3405 19.8736 31.2311C19.5619 31.1217 19.3042 30.8965 19.1539 30.6021C18.886 30.113 18.7855 29.6009 19.1026 29.0993C19.4197 28.5976 19.8738 28.2981 20.4901 28.3526C20.9944 28.3949 21.4693 28.6077 21.8369 28.9558C22.8948 29.9402 23.1909 31.574 22.5526 32.9009C22.448 33.1271 22.448 33.1397 22.6834 33.2277C23.0813 33.3835 23.4984 33.485 23.9234 33.5293C25.1854 33.6414 26.236 33.2507 27.0303 32.2411C27.7334 31.3467 27.7042 29.9706 26.9706 29.1684C26.9371 29.1317 26.9162 29.071 26.8524 29.0846C26.8032 29.249 26.7624 29.4103 26.7048 29.5664C26.3333 30.5665 25.3372 31.1834 24.3744 30.9865C23.4996 30.8074 22.8938 30.2806 22.6196 29.4313C22.3528 28.6018 22.5987 27.8603 23.1951 27.2623C24.1212 26.3282 25.2733 26.0705 26.5343 26.2831C28.5612 26.6245 30.0293 28.0876 30.4123 30.1005C30.4395 30.2461 30.4604 30.3937 30.4876 30.5644C32.9341 26.8392 33.8843 21.4091 32.1776 16.5758C30.6906 12.3773 27.8276 9.39041 23.8722 7.35344ZM14.7987 4.3802C14.7686 4.38167 14.7388 4.38623 14.7097 4.39381C14.6668 4.42523 14.625 4.45769 14.5831 4.49016C14.0045 4.94401 13.374 5.32722 12.7048 5.6317C12.4798 5.73643 12.2967 5.69244 12.19 5.52697C12.0832 5.3615 12.1303 5.17508 12.3176 5.02113C12.7529 4.66506 13.1118 4.25662 13.3117 3.71726C13.4815 3.25815 13.5994 2.78146 13.6633 2.2961C13.6978 2.03742 13.7585 1.77874 13.7125 1.49702C13.6717 1.51168 13.6644 1.54834 13.6424 1.57138C12.3951 2.87699 11.0985 4.13094 9.75285 5.33322C9.39392 5.65369 8.99419 5.92389 8.63527 6.24332C8.29519 6.54598 8.26484 6.83503 8.49296 7.22567C8.67789 7.53525 8.83612 7.86003 8.96594 8.1965C9.35311 9.23122 9.39497 10.2576 8.8613 11.2567C8.43331 12.0537 7.76361 12.5909 6.95472 12.9627C6.14584 13.3345 5.30976 13.5104 4.42344 13.3628C3.97049 13.2825 3.50945 13.2579 3.05054 13.2895C2.66002 13.3132 2.2913 13.4777 2.01249 13.7524C1.90053 13.8571 1.91831 13.922 2.05435 13.9817C2.27744 14.0713 2.5069 14.1441 2.7408 14.1995C3.56014 14.4205 4.28217 14.7975 4.80957 15.4877C5.06071 15.8166 5.26894 16.1779 5.54206 16.4858C6.67324 17.7425 7.95405 18.6851 9.77273 18.4882C9.88708 18.4745 10.0028 18.4984 10.1023 18.5564C10.2018 18.6145 10.2797 18.7034 10.3242 18.8097C10.4654 19.0751 10.6252 19.3303 10.8024 19.5732C11.1875 20.1167 11.6259 20.6079 12.1952 20.9671C12.6797 21.2719 13.1987 21.3954 13.7648 21.23C14.1488 21.1169 14.1499 21.1022 13.9207 20.7838C13.4782 20.1959 13.119 19.5495 12.8534 18.8631C12.6567 18.3217 12.5761 17.7802 12.8241 17.2262C12.9048 17.0201 12.9453 16.8004 12.9434 16.579C12.979 15.6479 12.8042 14.7452 12.5708 13.856C12.4662 13.456 12.485 13.3994 12.8262 13.1816C12.9664 13.0915 13.1087 13.0025 13.2447 12.902C14.3142 12.0966 14.9316 11.0786 14.7495 9.68574C14.7432 9.63338 14.7568 9.56635 14.7035 9.54017C14.6323 9.50456 14.5988 9.58311 14.5611 9.61976C14.2436 9.92612 13.897 10.2008 13.5262 10.4398C13.3169 10.5717 13.0962 10.5299 12.9905 10.3351C12.9472 10.2583 12.9323 10.1687 12.9486 10.0821C12.9649 9.99552 13.0112 9.91745 13.0794 9.86169C13.3714 9.56845 13.6654 9.2773 13.9312 8.95893C14.5507 8.2164 15.0414 7.4058 15.2455 6.44544C15.2748 6.30615 15.3344 6.16268 15.28 5.97835C15.0387 6.41633 14.7256 6.81069 14.3539 7.14503C14.0557 7.42343 13.7125 7.64934 13.3389 7.8132C13.2633 7.85046 13.1771 7.86015 13.0951 7.8406C13.0131 7.82105 12.9405 7.77349 12.8898 7.70612C12.8391 7.63874 12.8134 7.55577 12.8173 7.47151C12.8212 7.38725 12.8543 7.30697 12.9109 7.24452C12.9884 7.15236 13.0689 7.06334 13.1516 6.97642C13.6315 6.49198 14.0491 5.94948 14.3948 5.3615C14.5668 5.0511 14.7023 4.7218 14.7987 4.3802ZM16.6916 5.79194C16.6351 5.79194 16.5347 5.79717 16.4342 5.79194C16.3003 5.78356 16.2427 5.83278 16.2438 5.97521C16.2501 6.94395 15.9162 7.80587 15.3899 8.60076C15.349 8.65612 15.3223 8.72073 15.3123 8.78886C15.3022 8.857 15.3091 8.92656 15.3323 8.99139C15.6212 9.99574 15.5531 10.9718 15.0655 11.906C14.6888 12.6286 14.1185 13.1743 13.454 13.6277C13.3494 13.6989 13.2887 13.7607 13.3253 13.9011C13.5 14.559 13.6128 15.2318 13.6623 15.9108C13.7031 16.4742 13.6811 17.0345 13.4655 17.5666C13.3893 17.7533 13.37 17.9585 13.4101 18.1562C13.5691 18.9699 14.0139 19.6465 14.4743 20.3126C14.5088 20.3628 14.5475 20.3963 14.5957 20.323C14.8772 19.8978 15.0864 19.4412 15.0498 18.9207C15.0137 18.5205 14.9052 18.1301 14.7296 17.7687C14.5622 17.4056 14.3958 17.0415 14.2305 16.6764C14.1984 16.6244 14.1862 16.5625 14.1962 16.5022C14.2062 16.442 14.2377 16.3874 14.2849 16.3486C14.8939 15.8312 15.7499 15.6322 16.4729 16.0731C16.7869 16.2658 17.0495 16.5277 17.3341 16.7581C17.7956 17.133 18.2571 17.5079 18.8316 17.7006C19.0726 17.7952 19.3355 17.8197 19.5898 17.7713C19.8442 17.7229 20.0797 17.6037 20.2693 17.4273C20.644 17.1005 20.8909 16.6806 21.1065 16.2428C21.1818 16.092 21.0824 16.0868 20.9767 16.0972C20.1951 16.1789 19.5117 15.9349 18.9174 15.4448C18.5176 15.118 18.2288 14.7211 18.209 14.1744C18.1939 14.0143 18.1466 13.859 18.0698 13.7178C17.847 13.2763 17.5746 12.8616 17.2578 12.482C17.0589 12.2348 17.1311 11.951 17.4252 11.8327C17.5815 11.7744 17.7488 11.7519 17.9149 11.7667C18.2142 11.7814 18.5009 11.9144 18.8065 11.8463C19.2423 11.7556 19.6381 11.5286 19.9366 11.198C20.0795 11.0556 20.1794 10.8756 20.2245 10.6788C20.2697 10.482 20.2584 10.2764 20.1919 10.0858C20.1216 9.86832 20.1312 9.63282 20.2191 9.42183C20.4012 8.94322 20.7612 8.64055 21.2048 8.41958C21.8077 8.12525 22.3343 7.69508 22.7431 7.16283C22.898 6.96071 22.8843 6.93452 22.6531 6.84865C20.7497 6.11869 18.7615 5.85687 16.6916 5.79194ZM28.0892 15.0217C27.9113 15.052 27.7941 15.074 27.6759 15.0929C26.9647 15.2061 26.2473 15.276 25.5276 15.3023C24.8024 15.3306 24.0762 15.4008 23.349 15.3369C22.6531 15.2751 22.1916 15.516 21.9886 16.07C21.7866 16.6022 21.4985 17.0976 21.1358 17.5362C20.3436 18.5049 19.2836 18.7081 18.1849 18.1059C17.8857 17.9423 17.6026 17.7509 17.3394 17.5341C16.97 17.2283 16.6069 16.9057 16.2333 16.6114C16.1092 16.5133 15.9632 16.4466 15.8078 16.417C15.6524 16.3875 15.4921 16.396 15.3407 16.4418C15.1314 16.4962 15.1314 16.5298 15.2601 16.6931C15.888 17.4629 16.1517 18.3447 16.0031 19.3271C15.9085 19.873 15.6323 20.3708 15.2193 20.7398C15.1705 20.7789 15.1345 20.8317 15.1159 20.8914C15.0972 20.9511 15.0968 21.015 15.1147 21.075C15.1838 21.4164 15.4025 21.6405 15.6641 21.8343C16.1213 22.1736 16.6519 22.3579 17.1803 22.5496C17.3884 22.6199 17.5642 22.7629 17.6756 22.9523C17.7871 23.1417 17.8267 23.3649 17.7872 23.5811C17.6878 24.2095 17.7088 24.8379 17.7318 25.46C17.7413 25.7304 17.8437 25.9893 18.0216 26.1931C18.0394 25.8087 18.0112 25.46 18.0687 25.1175C18.1807 24.4462 18.4413 23.866 19.0356 23.4806C19.179 23.3818 19.3058 23.2609 19.4113 23.1224C19.8926 22.5276 20.1438 21.8269 20.3531 21.1033C20.4357 20.81 20.5623 20.7367 20.8648 20.7587C21.7019 20.8173 22.5286 20.8446 23.3605 20.7294C23.5719 20.704 23.7742 20.628 23.9501 20.5079C24.1261 20.3877 24.2705 20.227 24.3713 20.0392C24.32 20.0392 24.2939 20.0329 24.2667 20.0392C23.7201 20.0829 23.1702 20.025 22.6447 19.8685C22.4218 19.8067 22.3046 19.6528 22.3203 19.4705C22.336 19.2883 22.4804 19.148 22.7232 19.1302C23.2945 19.0883 23.8669 19.0579 24.4383 19.0087C24.9172 18.9844 25.3814 18.8353 25.785 18.5762C25.7592 18.5698 25.7323 18.5698 25.7065 18.5762C25.0965 18.6746 24.4958 18.662 23.914 18.4316C23.6964 18.3457 23.6064 18.1981 23.6378 18.0001C23.666 17.8263 23.8115 17.708 24.0281 17.686C24.3598 17.6577 24.6926 17.6346 25.0243 17.6022C25.6846 17.5383 26.2988 17.3665 26.7561 16.8398C26.7927 16.7968 26.8712 16.7528 26.8419 16.6952C26.8021 16.6167 26.7226 16.6764 26.663 16.6879C26.14 16.7949 25.6072 16.8468 25.0735 16.8429C24.793 16.8429 24.6392 16.6921 24.6392 16.4722C24.6392 16.2522 24.7679 16.1402 25.0578 16.115C25.7714 16.0553 26.4777 15.9611 27.1422 15.6699C27.5002 15.5233 27.8229 15.3024 28.0892 15.0217ZM23.1208 7.88127C22.6042 8.41513 21.9991 8.85555 21.3325 9.18305C21.2393 9.23551 21.1555 9.30311 21.0845 9.38308C20.9985 9.45716 20.9364 9.55512 20.906 9.66455C20.8756 9.77398 20.8784 9.88997 20.9139 9.99783C21.0177 10.3419 21.0022 10.711 20.87 11.0451C20.5561 11.8829 19.5327 12.5888 18.6202 12.6087C18.5082 12.6087 18.3439 12.5197 18.3063 12.6087C18.256 12.7134 18.4025 12.8245 18.4653 12.9313C18.6746 13.2905 18.8985 13.6497 18.9216 14.0739C18.9398 14.3559 19.0684 14.6193 19.2794 14.807C19.5387 15.0718 19.8691 15.2558 20.2306 15.3369C20.8156 15.4563 21.3817 15.4668 21.8494 14.9902C21.9215 14.9312 21.9973 14.877 22.0765 14.8279C22.1886 14.751 22.2831 14.6511 22.3537 14.5348C22.4242 14.4185 22.4692 14.2885 22.4857 14.1535C22.5171 13.7475 22.5129 13.3396 22.4731 12.9344C22.4564 12.6726 22.5464 12.5312 22.7964 12.4893C23.2569 12.4108 23.4975 12.1092 23.6336 11.6986C23.7079 11.4818 23.6932 11.4693 23.4777 11.5185C23.2359 11.573 23.0528 11.4839 22.9932 11.2839C22.9335 11.0839 23.0308 10.9236 23.2548 10.8336C23.4079 10.7855 23.5542 10.718 23.6901 10.6325C23.892 10.4838 23.9276 10.3099 23.8094 10.0921C23.7612 10.0031 23.7225 9.99365 23.644 10.0596C23.5379 10.1507 23.4245 10.233 23.305 10.3057C23.2263 10.3538 23.1322 10.3695 23.0422 10.3496C22.9522 10.3297 22.8734 10.2757 22.8223 10.199C22.7711 10.1222 22.7517 10.0287 22.7679 9.93788C22.7842 9.8471 22.8349 9.76613 22.9095 9.71193C23.0026 9.63652 23.1062 9.57264 23.1941 9.49095C23.395 9.30348 23.4693 9.06156 23.395 8.85211C23.2764 8.98949 23.1419 9.11219 22.9942 9.21761C22.9353 9.26535 22.8622 9.2921 22.7864 9.29362C22.7106 9.29513 22.6364 9.27134 22.5757 9.22599C22.5141 9.18451 22.4673 9.1245 22.4421 9.05464C22.4169 8.98479 22.4146 8.90872 22.4354 8.83744C22.4643 8.74058 22.5257 8.65662 22.6091 8.59971C22.8341 8.39339 23.0413 8.18708 23.1208 7.88127ZM8.18322 9.55693C8.17874 9.26134 8.12352 8.96873 8.01998 8.69187C7.93731 8.45099 7.93626 8.4489 7.72803 8.59238C6.84527 9.2051 6.04575 9.92995 5.34952 10.7487C4.98851 11.1677 4.65156 11.6065 4.32612 12.0558C4.22985 12.1898 4.25183 12.2286 4.41088 12.2401C4.58877 12.2537 4.76666 12.3061 4.94456 12.3071C5.75853 12.3127 6.55082 12.0446 7.19435 11.5457C7.81593 11.0734 8.19264 10.4649 8.18322 9.55693Z" fill="black"/>
<path d="M18.5669 32.9816C18.2624 33.0612 17.9683 33.0496 17.6816 33.0779C15.75 33.2758 13.8411 33.6538 11.9797 34.2069C10.7072 34.5818 9.45363 35.0227 8.15398 35.3055C6.99141 35.5579 5.82152 35.7569 4.62755 35.7244C3.85007 35.7014 3.08409 35.5914 2.38403 35.2154C1.9257 34.9683 1.55632 34.6331 1.36587 34.1304C1.35412 34.0995 1.34502 34.0676 1.33866 34.0351C1.33749 34.0042 1.33995 33.9733 1.34599 33.943C1.50253 34.0578 1.67679 34.1463 1.86187 34.2048C2.34856 34.3253 2.85287 34.3576 3.35092 34.3001C5.2418 34.1367 7.02594 33.5408 8.81218 32.947C10.7198 32.3124 12.6724 31.9521 14.691 32.0369C15.9331 32.0882 17.1417 32.3061 18.2875 32.8119C18.394 32.8428 18.4904 32.9013 18.5669 32.9816Z" fill="black"/>
<path d="M28.2378 34.9453C28.0938 35.1321 27.9164 35.2905 27.7146 35.4124C26.5112 36.2125 25.1802 36.689 23.7654 36.9404C21.7594 37.2965 19.7639 37.1834 17.782 36.7603C16.5954 36.5068 15.4129 36.2261 14.2053 36.0785C13.3389 35.9737 12.4704 35.8753 11.5956 36.0146C11.5035 36.0292 11.3779 36.1277 11.3235 36.0355C11.2691 35.9434 11.3989 35.8648 11.4606 35.7894C11.8792 35.2836 12.4296 34.9788 13.0302 34.7599C13.7694 34.504 14.545 34.3685 15.3271 34.3588C16.9082 34.3096 18.4486 34.584 19.9805 34.9359C21.1973 35.213 22.4377 35.3733 23.6848 35.4145C25.1861 35.4859 26.6896 35.3328 28.1457 34.96C28.1762 34.9535 28.2069 34.9486 28.2378 34.9453Z" fill="black"/>
<path d="M30.8099 35.7171C30.8382 35.7643 30.8099 35.7988 30.7921 35.8323C30.0178 37.3425 28.9567 38.5846 27.4268 39.3701C25.9618 40.1231 24.4309 40.1576 22.8728 39.7031C21.8065 39.3889 20.8344 38.882 19.9083 38.2756C19.8944 38.267 19.8827 38.2552 19.8741 38.2412C19.8656 38.2272 19.8604 38.2114 19.8591 38.195C20.015 38.2285 20.1731 38.2641 20.3269 38.2934C21.1944 38.4481 22.0795 38.4781 22.9555 38.3825C25.7044 38.1196 28.2012 37.1069 30.5943 35.802C30.6655 35.7653 30.7241 35.7046 30.8099 35.7171Z" fill="black"/>
<path d="M23.4474 25.6862C23.417 26.1512 23.3804 26.6026 23.1627 27.0173C22.8812 27.5557 22.3769 27.7787 21.8024 27.5902C21.3119 27.4431 20.8844 27.1365 20.5875 26.7189C20.4579 26.5424 20.3801 26.3332 20.3629 26.1148C20.3458 25.8965 20.3898 25.6777 20.4902 25.4831C20.6643 25.1359 20.9148 24.8326 21.2227 24.596C21.6565 24.2497 22.133 23.9607 22.6406 23.7362C22.6607 23.7225 22.6834 23.7129 22.7073 23.7082C22.7311 23.7034 22.7557 23.7036 22.7796 23.7086C22.8034 23.7135 22.826 23.7233 22.846 23.7372C22.866 23.7511 22.8829 23.769 22.8959 23.7896C23.2423 24.1897 23.3406 24.6777 23.4065 25.1783C23.4306 25.3501 23.4358 25.5239 23.4474 25.6862ZM22.7149 25.6381C22.7153 25.3363 22.6752 25.0358 22.5956 24.7447C22.5788 24.6756 22.5631 24.5772 22.4574 24.64C21.9646 24.9238 21.479 25.2202 21.1766 25.726C21.0291 25.9732 21.0573 26.1858 21.2499 26.4057C21.4276 26.6063 21.6493 26.763 21.8976 26.8634C22.2482 27.01 22.4501 26.9199 22.583 26.5607C22.6841 26.2641 22.7295 25.9513 22.717 25.6381H22.7149Z" fill="black"/>
</svg>
