<svg width="120" height="36" viewBox="0 0 120 36" fill="none" xmlns="http://www.w3.org/2000/svg">
<path d="M119.442 32.2258H116.868L118.895 34.4596H120L119.563 35.6493H116.698L114.294 32.7964V35.6493H111.417V27.3091H118.179L119.442 28.256V32.2258ZM114.294 28.8387V30.7083H116.856V28.8387H114.294Z" fill="black"/>
<path d="M105.65 27.3213V28.8509H100.454V30.8298H105.577V32.3473H100.454V34.1319H105.953L105.492 35.6615H97.6129V27.3213H105.65Z" fill="black"/>
<path d="M82.5402 27.3335H85.2717L89.8 32.8694V27.3335H92.1551V35.6616H89.2051L84.9075 30.4292V35.6616H82.5402V27.3335Z" fill="black"/>
<path d="M67.4675 27.3335H70.1991L74.7273 32.8694V27.3335H77.0825V35.6616H74.1324L69.8349 30.4292V35.6616H67.4675V27.3335Z" fill="black"/>
<path d="M61.6529 27.3213V28.8509H60.7059V34.1319H62.0049L61.5072 35.6615H57.1489V34.1319H58.108V28.8509H57.1489V27.3213H61.6529Z" fill="black"/>
<path d="M37.8438 27.3213H40.4296V29.0452L41.9714 32.7722L43.4768 27.8676H46.0505L47.5195 32.7722L49.0977 29.0452V27.3213H51.6835V28.9602L49.0855 35.6615H46.0019L44.7637 32.2744L43.5254 35.6615H40.4418L37.8438 28.9602V27.3213Z" fill="black"/>
<path d="M32.3803 27.3213V28.8509H26.3831V34.1319H29.8309L29.3574 35.6615H23.5181V27.3213H32.3803ZM27.7428 32.1045V30.587H32.3803V35.6615H29.8552V32.1045H27.7428Z" fill="black"/>
<path d="M17.7035 27.3213V28.8509H16.7565V34.1319H18.0555L17.5578 35.6615H13.1995V34.1319H14.1586V28.8509H13.1995V27.3213H17.7035Z" fill="black"/>
<path d="M7.73323 32.1893V35.6735H0V27.4304H6.45852L7.73323 28.3895V30.9146L6.70132 31.558L7.73323 32.1893ZM4.91673 32.1529H3.49634L2.84078 31.1696V34.156H4.91673V32.1529ZM2.84078 28.9479V30.6354H4.91673V28.9479H2.84078Z" fill="black"/>
<path d="M107.071 0.682129V3.26664H99.1987V0.682129H107.071ZM108.304 4.12024V6.84701H97.9657V4.12024H108.304ZM107.664 7.70061V10.2851H98.5585V7.70061H107.664ZM107.664 11.1387V13.6758H98.5585V11.1387H107.664ZM98.5585 14.4583H107.758V20.5283C107.758 21.7929 107.094 22.4252 105.767 22.4252H98.5585V14.4583ZM104.32 19.8407C104.763 19.8407 104.984 19.6589 104.984 19.2953V17.0902H101.404V19.8407H104.32ZM108.304 0.871818H118.95V18.8922C118.95 19.3507 119.1 19.5799 119.401 19.5799H119.898V22.4252H117.907C116.579 22.4252 115.915 21.5953 115.915 19.9355V12.8222H113.544V22.52H110.39V12.8222H108.019V9.97687H110.39V3.71715H108.304V0.871818ZM113.544 3.71715V9.97687H115.915V3.71715H113.544Z" fill="black"/>
<path d="M80.1587 1.46459V4.00168H74.2783V1.46459H80.1587ZM77.3133 5.16352H80.6092L79.0679 8.43565C78.736 9.16279 78.1827 9.52636 77.4082 9.52636H73.9701V7.2501H76.1752C76.4123 7.2501 76.5862 7.08412 76.6968 6.75217L77.3133 5.16352ZM83.0751 0.682129H86.3235L85.873 1.53573H95.0255L94.3853 5.5429H91.1369L91.54 3.81199H84.7349L84.6638 3.95426C84.316 4.69721 83.7232 5.06868 82.8854 5.06868H80.704V2.7687H81.6525C81.9844 2.7687 82.2215 2.61063 82.3638 2.29448L83.0751 0.682129ZM85.0669 4.57075H88.505L88.007 5.5429H90.0936L90.7575 6.75217C90.884 7.02089 91.1448 7.15525 91.54 7.15525H95.0255V9.43152H89.9039C89.319 9.43152 88.829 9.10747 88.4338 8.45936L87.4617 6.63361L86.6318 8.29339C86.2208 9.11537 85.549 9.52636 84.6163 9.52636H80.4432V7.2501H83.2885C83.6837 7.2501 83.9682 7.0367 84.1421 6.6099L85.0669 4.57075ZM74.9185 9.97687H94.0771V17.849C94.0771 18.8132 93.5791 19.2953 92.5833 19.2953H74.9185V9.97687ZM90.7575 17.3984C90.9314 17.3984 91.0262 17.1692 91.042 16.7108H77.9535V17.3984H90.7575ZM77.9535 14.9088H91.042V14.3634H77.9535V14.9088ZM77.9535 12.5614H91.042V11.8738H77.9535V12.5614ZM78.4515 19.7458H82.3401C81.6604 20.9472 81.0123 21.6981 80.3958 21.9984C79.7477 22.3462 79.0047 22.52 78.1669 22.52H73.9701V20.6231H77.1236C77.6453 20.6231 78.0879 20.3307 78.4515 19.7458ZM85.6359 19.7458H89.5482L89.8802 20.2675C90.0699 20.5046 90.3939 20.6231 90.8524 20.6231H95.1204V22.52H89.3586C88.0307 22.52 87.0902 22.0774 86.5369 21.1922L85.6359 19.7458Z" fill="black"/>
<path d="M58.4156 0.682129H62.2331V1.91511H71.1484V5.44806H67.8052V4.57075H52.8435V5.44806H49.5002V1.91511H58.4156V0.682129ZM70.3897 5.99341V8.57792H57.4671L56.9692 9.43152H63.7269V20.1252C63.7269 21.6585 62.7152 22.4252 60.6918 22.4252H57.6568V19.8407H59.5537C60.0754 19.8407 60.3362 19.6589 60.3362 19.2953V11.9686H55.3094C54.8036 12.4112 54.1318 12.6325 53.294 12.6325H49.8085V10.0717H51.895C52.4799 10.0717 52.9067 9.85832 53.1754 9.43152L53.6971 8.57792H49.9981V5.99341H70.3897ZM55.2146 12.7274H59.4589L54.9775 16.6397C54.5981 16.94 54.1634 17.0902 53.6734 17.0902H49.8085V14.4583H52.8435C53.0016 14.4583 53.1359 14.4029 53.2466 14.2923L55.2146 12.7274ZM55.6651 17.0902H59.9568L54.9301 21.3345C54.5191 21.6664 54.0369 21.8324 53.4837 21.8324H49.8085V19.1768H52.6301C52.8514 19.1768 53.0332 19.1135 53.1754 18.9871L55.6651 17.0902ZM67.3547 9.5975H70.935L69.3464 12.3243C68.9986 12.925 68.4217 13.2253 67.6155 13.2253H64.5805V10.7356H66.3114C66.5327 10.7356 66.6908 10.6487 66.7856 10.4748L67.3547 9.5975ZM64.6753 14.0552H68.2083L69.2753 18.2995C69.3859 18.8211 69.5914 19.0819 69.8917 19.0819H71.1484V21.9273H68.5639C67.41 21.9273 66.6512 21.295 66.2877 20.0304L64.6753 14.0552Z" fill="black"/>
<path d="M34.42 0.326416H37.8581V1.18001H46.8683V3.45628H29.7963V3.7171C29.7963 3.90679 30.0097 4.00163 30.4365 4.00163H46.0147V5.80368H28.3499C27.0221 5.80368 26.3582 5.45591 26.3582 4.76039V3.45628H25.2201V1.18001H34.42V0.326416ZM26.2634 6.4913H46.0147V9.24178C46.0147 10.127 45.4061 10.5696 44.189 10.5696H26.2634V6.4913ZM42.1261 8.83869C42.3 8.83869 42.3869 8.80708 42.3869 8.74385V8.1985H29.8912V8.83869H42.1261ZM27.117 11.2335H31.9777V20.7179C31.9777 21.9193 31.2506 22.52 29.7963 22.52H28.8479V20.4334H28.9427C29.3221 20.4334 29.5118 20.2674 29.5118 19.9355V19.3901H28.4448V19.9355C28.4448 21.6585 27.5991 22.52 25.9077 22.52H25.0304V20.4334H25.4098C25.7417 20.4334 25.9077 20.2358 25.9077 19.8406V11.2335H27.117ZM28.4448 17.4932H29.5118V16.45H28.4448V17.4932ZM28.4448 14.3634H29.5118V13.2252H28.4448V14.3634ZM32.6417 11.2335H39.4467V18.7973C39.4467 19.5719 39.0595 20.0303 38.2849 20.1726L38.3323 20.4334C38.3955 20.6705 38.522 20.7891 38.7117 20.7891H39.1622V22.52H37.455C37.0756 22.52 36.7516 22.2434 36.4828 21.6901L35.9138 20.2437H35.6767L35.0365 21.6901C34.8152 22.2434 34.4279 22.52 33.8746 22.52H32.0489V20.7179H32.9262C33.0526 20.7179 33.1554 20.5994 33.2344 20.3623L33.2581 20.2437H32.6417V11.2335ZM36.4117 18.3468C36.8069 18.3468 37.0045 18.1809 37.0045 17.8489V17.6829H35.0839V18.3468H36.4117ZM35.0839 16.0469H37.0045V15.4067H35.0839V16.0469ZM35.0839 13.7706H37.0045V13.1067H35.0839V13.7706ZM40.2055 11.2335H46.4652V19.8406C46.4652 20.1726 46.6312 20.3386 46.9631 20.3386H47.1528V22.52H45.6116C44.4893 22.52 43.9281 21.943 43.9281 20.7891V17.8489H43.122L42.9323 20.4808C42.8058 21.9667 42.4422 22.7097 41.8416 22.7097H39.8498V20.2437H40.49C40.6797 20.2437 40.8062 19.8723 40.8694 19.1293L40.9405 17.8489H40.0395V15.7623H41.0591L41.1776 13.6758H40.2055V11.2335ZM43.2879 15.7623H43.9281V13.6758H43.4302L43.2879 15.7623Z" fill="black"/>
<path d="M22.5882 4.30992V7.43979H14.2656L18.9604 18.1335C19.2607 18.829 19.5769 19.1768 19.9088 19.1768H22.683V22.3303H17.6563C17.1346 22.3303 16.6999 21.8956 16.3521 21.0262L11.9182 10.3563L7.74502 20.6469C7.2708 21.7692 6.70963 22.3303 6.06153 22.3303H0.845093V19.1768H3.78527C4.2911 19.1768 4.82065 18.4417 5.37391 16.9716L9.12026 7.43979H0.939937V4.30992H9.95015V0.682129H13.6728V4.30992H22.5882Z" fill="black"/>
</svg>
